<svg xmlns="http://www.w3.org/2000/svg" xmlns:xlink="http://www.w3.org/1999/xlink" contentStyleType="text/css" data-diagram-type="CLASS" height="1160px" preserveAspectRatio="none" style="width:4446px;height:1160px;background:#FFFFFF;" version="1.1" viewBox="0 0 4446 1160" width="4446px" zoomAndPan="magnify"><?plantuml 1.2026.4beta2?><defs/><g><g class="title" data-source-line="1"><text fill="#000000" font-family="sans-serif" font-size="14" font-weight="700" lengthAdjust="spacing" textLength="290.2197" x="2074.6616" y="22.9951">Design Class Diagram - MedManager</text></g><!--class MainMenu--><g class="entity" data-qualified-name="MainMenu" data-source-line="9" id="ent0002"><rect fill="#F1F1F1" height="107.4844" rx="2.5" ry="2.5" style="stroke:#181818;stroke-width:0.5;" width="342.5176" x="2661.15" y="44.2969"/><text fill="#000000" font-family="sans-serif" font-size="14" lengthAdjust="spacing" textLength="71.8594" x="2796.4791" y="62.292">MainMenu</text><line style="stroke:#181818;stroke-width:0.5;" x1="2662.15" x2="3002.6676" y1="70.5938" y2="70.5938"/><line style="stroke:#181818;stroke-width:0.5;" x1="2662.15" x2="3002.6676" y1="78.5938" y2="78.5938"/><text fill="#000000" font-family="sans-serif" font-size="14" lengthAdjust="spacing" textLength="134.8662" x="2667.15" y="95.5889">+mainMenu(): void</text><text fill="#000000" font-family="sans-serif" font-size="14" lengthAdjust="spacing" textLength="244.248" x="2667.15" y="111.8857">+menuCenterAdministrator(): void</text><text fill="#000000" font-family="sans-serif" font-size="14" lengthAdjust="spacing" textLength="144.4229" x="2667.15" y="128.1826">+clearScreen(): void</text><text fill="#000000" font-family="sans-serif" font-size="14" lengthAdjust="spacing" textLength="330.5176" x="2667.15" y="144.4795">+readInt(prompt: string, min: int, max: int): int</text></g><!--class VaccineController--><g class="entity" data-qualified-name="VaccineController" data-source-line="16" id="ent0003"><rect fill="#F1F1F1" height="91.1875" rx="2.5" ry="2.5" style="stroke:#181818;stroke-width:0.5;" width="616.8232" x="7" y="312.7769"/><text fill="#000000" font-family="sans-serif" font-size="14" lengthAdjust="spacing" textLength="124.0996" x="253.3618" y="330.772">VaccineController</text><line style="stroke:#181818;stroke-width:0.5;" x1="8" x2="622.8232" y1="339.0738" y2="339.0738"/><line style="stroke:#181818;stroke-width:0.5;" x1="8" x2="622.8232" y1="347.0738" y2="347.0738"/><text fill="#000000" font-family="sans-serif" font-size="14" lengthAdjust="spacing" textLength="581.752" x="13" y="364.0689">+createVaccineType(code: string, disease: string, tech: string, recPeriod: int): bool</text><text fill="#000000" font-family="sans-serif" font-size="14" lengthAdjust="spacing" textLength="604.8232" x="13" y="380.3657">+registerVaccine(typeIndex: int, brand: string, lot: string, expiry: string, qty: int): bool</text><text fill="#000000" font-family="sans-serif" font-size="14" lengthAdjust="spacing" textLength="571.9697" x="13" y="396.6626">+getVaccineStockGroupedAndSorted(): map&lt;VaccineType*, vector&lt;Vaccine*&gt;&gt;</text></g><!--class EmployeeController--><g class="entity" data-qualified-name="EmployeeController" data-source-line="22" id="ent0004"><rect fill="#F1F1F1" height="74.8906" rx="2.5" ry="2.5" style="stroke:#181818;stroke-width:0.5;" width="806.7461" x="684.04" y="320.9269"/><text fill="#000000" font-family="sans-serif" font-size="14" lengthAdjust="spacing" textLength="138.5098" x="1018.1582" y="338.922">EmployeeController</text><line style="stroke:#181818;stroke-width:0.5;" x1="685.04" x2="1489.7861" y1="347.2238" y2="347.2238"/><line style="stroke:#181818;stroke-width:0.5;" x1="685.04" x2="1489.7861" y1="355.2238" y2="355.2238"/><text fill="#000000" font-family="sans-serif" font-size="14" lengthAdjust="spacing" textLength="794.7461" x="690.04" y="372.2189">+registerEmployee(role: int, id: string, name: string, address: string, phone: string, email: string, cc: string): bool</text><text fill="#000000" font-family="sans-serif" font-size="14" lengthAdjust="spacing" textLength="378.5742" x="690.04" y="388.5157">+getEmployeesByRole(role: int): vector&lt;Employee*&gt;</text></g><!--class SNSUserController--><g class="entity" data-qualified-name="SNSUserController" data-source-line="27" id="ent0005"><rect fill="#F1F1F1" height="58.5938" rx="2.5" ry="2.5" style="stroke:#181818;stroke-width:0.5;" width="909.6475" x="1550.59" y="329.0769"/><text fill="#000000" font-family="sans-serif" font-size="14" lengthAdjust="spacing" textLength="129.3291" x="1940.7492" y="347.072">SNSUserController</text><line style="stroke:#181818;stroke-width:0.5;" x1="1551.59" x2="2459.2375" y1="355.3738" y2="355.3738"/><line style="stroke:#181818;stroke-width:0.5;" x1="1551.59" x2="2459.2375" y1="363.3738" y2="363.3738"/><text fill="#000000" font-family="sans-serif" font-size="14" lengthAdjust="spacing" textLength="897.6475" x="1556.59" y="380.3689">+registerSNSUser(snsNumber: string, name: string, address: string, birthdate: string, phone: string, cc: string, sex: string): bool</text></g><!--class AppointmentController--><g class="entity" data-qualified-name="AppointmentController" data-source-line="31" id="ent0006"><rect fill="#F1F1F1" height="91.1875" rx="2.5" ry="2.5" style="stroke:#181818;stroke-width:0.5;" width="624.4043" x="2520.21" y="312.7769"/><text fill="#000000" font-family="sans-serif" font-size="14" lengthAdjust="spacing" textLength="159.9541" x="2752.4351" y="330.772">AppointmentController</text><line style="stroke:#181818;stroke-width:0.5;" x1="2521.21" x2="3143.6143" y1="339.0738" y2="339.0738"/><line style="stroke:#181818;stroke-width:0.5;" x1="2521.21" x2="3143.6143" y1="347.0738" y2="347.0738"/><text fill="#000000" font-family="sans-serif" font-size="14" lengthAdjust="spacing" textLength="612.4043" x="2526.21" y="364.0689">+createAppointment(snsNumber: string, typeIndex: int, date: string, time: string): bool</text><text fill="#000000" font-family="sans-serif" font-size="14" lengthAdjust="spacing" textLength="304.7803" x="2526.21" y="380.3657">+checkUserExists(snsNumber: string): bool</text><text fill="#000000" font-family="sans-serif" font-size="14" lengthAdjust="spacing" textLength="469.1572" x="2526.21" y="396.6626">+hasPendingAppointment(snsNumber: string, typeIndex: int): bool</text></g><!--class ArrivalController--><g class="entity" data-qualified-name="ArrivalController" data-source-line="37" id="ent0007"><rect fill="#F1F1F1" height="58.5938" rx="2.5" ry="2.5" style="stroke:#181818;stroke-width:0.5;" width="302.8145" x="3205" y="329.0769"/><text fill="#000000" font-family="sans-serif" font-size="14" lengthAdjust="spacing" textLength="114.9053" x="3298.9546" y="347.072">ArrivalController</text><line style="stroke:#181818;stroke-width:0.5;" x1="3206" x2="3506.8145" y1="355.3738" y2="355.3738"/><line style="stroke:#181818;stroke-width:0.5;" x1="3206" x2="3506.8145" y1="363.3738" y2="363.3738"/><text fill="#000000" font-family="sans-serif" font-size="14" lengthAdjust="spacing" textLength="290.8145" x="3211" y="380.3689">+registerArrival(snsNumber: string): bool</text></g><!--class VaccinationController--><g class="entity" data-qualified-name="VaccinationController" data-source-line="41" id="ent0008"><rect fill="#F1F1F1" height="58.5938" rx="2.5" ry="2.5" style="stroke:#181818;stroke-width:0.5;" width="483.1875" x="3567.82" y="329.0769"/><text fill="#000000" font-family="sans-serif" font-size="14" lengthAdjust="spacing" textLength="150.8828" x="3733.9723" y="347.072">VaccinationController</text><line style="stroke:#181818;stroke-width:0.5;" x1="3568.82" x2="4050.0075" y1="355.3738" y2="355.3738"/><line style="stroke:#181818;stroke-width:0.5;" x1="3568.82" x2="4050.0075" y1="363.3738" y2="363.3738"/><text fill="#000000" font-family="sans-serif" font-size="14" lengthAdjust="spacing" textLength="471.1875" x="3573.82" y="380.3689">+recordAdministration(snsNumber: string, lotNumber: string): bool</text></g><!--class WaitingRoomController--><g class="entity" data-qualified-name="WaitingRoomController" data-source-line="45" id="ent0009"><rect fill="#F1F1F1" height="58.5938" rx="2.5" ry="2.5" style="stroke:#181818;stroke-width:0.5;" width="320.2529" x="4111.29" y="329.0769"/><text fill="#000000" font-family="sans-serif" font-size="14" lengthAdjust="spacing" textLength="163.1191" x="4189.8569" y="347.072">WaitingRoomController</text><line style="stroke:#181818;stroke-width:0.5;" x1="4112.29" x2="4430.5429" y1="355.3738" y2="355.3738"/><line style="stroke:#181818;stroke-width:0.5;" x1="4112.29" x2="4430.5429" y1="363.3738" y2="363.3738"/><text fill="#000000" font-family="sans-serif" font-size="14" lengthAdjust="spacing" textLength="308.2529" x="4117.29" y="380.3689">+getWaitingRoomList(): vector&lt;SNSUser*&gt;</text></g><!--class HealthcareCenter--><g class="entity" data-qualified-name="HealthcareCenter" data-source-line="49" id="ent0010"><rect fill="#F1F1F1" height="270.4531" rx="2.5" ry="2.5" style="stroke:#181818;stroke-width:0.5;" width="448.8027" x="2608.01" y="483.9669"/><text fill="#000000" font-family="sans-serif" font-size="14" lengthAdjust="spacing" textLength="123.7373" x="2770.5427" y="501.962">HealthcareCenter</text><line style="stroke:#181818;stroke-width:0.5;" x1="2609.01" x2="3055.8127" y1="510.2638" y2="510.2638"/><text fill="#000000" font-family="sans-serif" font-size="14" lengthAdjust="spacing" textLength="94.1104" x="2614.01" y="527.2589">-name: string</text><text fill="#000000" font-family="sans-serif" font-size="14" lengthAdjust="spacing" textLength="109.7168" x="2614.01" y="543.5557">-address: string</text><text fill="#000000" font-family="sans-serif" font-size="14" lengthAdjust="spacing" textLength="98.2188" x="2614.01" y="559.8526">-phone: string</text><text fill="#000000" font-family="sans-serif" font-size="14" lengthAdjust="spacing" textLength="93.0166" x="2614.01" y="576.1495">-email: string</text><line style="stroke:#181818;stroke-width:0.5;" x1="2609.01" x2="3055.8127" y1="583.4513" y2="583.4513"/><text fill="#000000" font-family="sans-serif" font-size="14" lengthAdjust="spacing" textLength="296.5498" x="2614.01" y="600.4464">+addVaccineType(vt: VaccineType*): bool</text><text fill="#000000" font-family="sans-serif" font-size="14" lengthAdjust="spacing" textLength="306.373" x="2614.01" y="616.7432">+addVaccineToInventory(v: Vaccine*): bool</text><text fill="#000000" font-family="sans-serif" font-size="14" lengthAdjust="spacing" textLength="274.0596" x="2614.01" y="633.0401">+addEmployee(emp: Employee*): bool</text><text fill="#000000" font-family="sans-serif" font-size="14" lengthAdjust="spacing" textLength="283.042" x="2614.01" y="649.337">+registerSNSUser(user: SNSUser*): bool</text><text fill="#000000" font-family="sans-serif" font-size="14" lengthAdjust="spacing" textLength="317.6523" x="2614.01" y="665.6339">+addAppointment(appt: Appointment*): bool</text><text fill="#000000" font-family="sans-serif" font-size="14" lengthAdjust="spacing" textLength="436.8027" x="2614.01" y="681.9307">+addArrivalAndQueueUser(arr: Arrival*, user: SNSUser*): bool</text><text fill="#000000" font-family="sans-serif" font-size="14" lengthAdjust="spacing" textLength="330.8457" x="2614.01" y="698.2276">+moveToRecoveryRoom(user: SNSUser*): bool</text><text fill="#000000" font-family="sans-serif" font-size="14" lengthAdjust="spacing" textLength="283.7803" x="2614.01" y="714.5245">+getWaitingRoom(): vector&lt;SNSUser*&gt;</text><text fill="#000000" font-family="sans-serif" font-size="14" lengthAdjust="spacing" textLength="251.4736" x="2614.01" y="730.8214">+getInventory(): vector&lt;Vaccine*&gt;</text><text fill="#000000" font-family="sans-serif" font-size="14" lengthAdjust="spacing" textLength="275.6455" x="2614.01" y="747.1182">+getEmployees(): vector&lt;Employee*&gt;</text></g><!--class Employee--><g class="entity" data-qualified-name="Employee" data-source-line="66" id="ent0011"><rect fill="#F1F1F1" height="172.6719" rx="2.5" ry="2.5" style="stroke:#181818;stroke-width:0.5;" width="204.1377" x="3270.34" y="842.5669"/><text fill="#000000" font-family="sans-serif" font-size="14" lengthAdjust="spacing" textLength="69.3369" x="3337.7404" y="860.562">Employee</text><line style="stroke:#181818;stroke-width:0.5;" x1="3271.34" x2="3473.4777" y1="868.8638" y2="868.8638"/><text fill="#000000" font-family="sans-serif" font-size="14" lengthAdjust="spacing" textLength="94.1104" x="3276.34" y="885.8589">-name: string</text><text fill="#000000" font-family="sans-serif" font-size="14" lengthAdjust="spacing" textLength="98.2188" x="3276.34" y="902.1557">-phone: string</text><text fill="#000000" font-family="sans-serif" font-size="14" lengthAdjust="spacing" textLength="93.0166" x="3276.34" y="918.4526">-email: string</text><text fill="#000000" font-family="sans-serif" font-size="14" lengthAdjust="spacing" textLength="133.2051" x="3276.34" y="934.7495">-citizenCard: string</text><line style="stroke:#181818;stroke-width:0.5;" x1="3271.34" x2="3473.4777" y1="942.0513" y2="942.0513"/><text fill="#000000" font-family="sans-serif" font-size="14" lengthAdjust="spacing" textLength="136.3018" x="3276.34" y="959.0464">+getName(): string</text><text fill="#000000" font-family="sans-serif" font-size="14" lengthAdjust="spacing" textLength="138.3662" x="3276.34" y="975.3432">+getPhone(): string</text><text fill="#000000" font-family="sans-serif" font-size="14" lengthAdjust="spacing" textLength="133.8408" x="3276.34" y="991.6401">+getEmail(): string</text><text fill="#000000" font-family="sans-serif" font-size="14" lengthAdjust="spacing" textLength="192.1377" x="3276.34" y="1007.937">+getRole(): string &#171;virtual&#187;</text></g><!--class CenterAdministrator--><g class="entity" data-qualified-name="CenterAdministrator" data-source-line="77" id="ent0012"><rect fill="#F1F1F1" height="42.2969" rx="2.5" ry="2.5" style="stroke:#181818;stroke-width:0.5;" width="148.8027" x="3140.01" y="1103.3869"/><text fill="#000000" font-family="sans-serif" font-size="14" lengthAdjust="spacing" textLength="142.8027" x="3143.01" y="1121.382">CenterAdministrator</text><line style="stroke:#181818;stroke-width:0.5;" x1="3141.01" x2="3287.8127" y1="1129.6838" y2="1129.6838"/><line style="stroke:#181818;stroke-width:0.5;" x1="3141.01" x2="3287.8127" y1="1137.6838" y2="1137.6838"/></g><!--class Nurse--><g class="entity" data-qualified-name="Nurse" data-source-line="78" id="ent0014"><rect fill="#F1F1F1" height="42.2969" rx="2.5" ry="2.5" style="stroke:#181818;stroke-width:0.5;" width="47.0088" x="3348.91" y="1103.3869"/><text fill="#000000" font-family="sans-serif" font-size="14" lengthAdjust="spacing" textLength="41.0088" x="3351.91" y="1121.382">Nurse</text><line style="stroke:#181818;stroke-width:0.5;" x1="3349.91" x2="3394.9188" y1="1129.6838" y2="1129.6838"/><line style="stroke:#181818;stroke-width:0.5;" x1="3349.91" x2="3394.9188" y1="1137.6838" y2="1137.6838"/></g><!--class Receptionist--><g class="entity" data-qualified-name="Receptionist" data-source-line="79" id="ent0016"><rect fill="#F1F1F1" height="42.2969" rx="2.5" ry="2.5" style="stroke:#181818;stroke-width:0.5;" width="93.0283" x="3455.9" y="1103.3869"/><text fill="#000000" font-family="sans-serif" font-size="14" lengthAdjust="spacing" textLength="87.0283" x="3458.9" y="1121.382">Receptionist</text><line style="stroke:#181818;stroke-width:0.5;" x1="3456.9" x2="3547.9283" y1="1129.6838" y2="1129.6838"/><line style="stroke:#181818;stroke-width:0.5;" x1="3456.9" x2="3547.9283" y1="1137.6838" y2="1137.6838"/></g><!--class VaccineType--><g class="entity" data-qualified-name="VaccineType" data-source-line="81" id="ent0018"><rect fill="#F1F1F1" height="123.7813" rx="2.5" ry="2.5" style="stroke:#181818;stroke-width:0.5;" width="150.1953" x="2300.31" y="867.0169"/><text fill="#000000" font-family="sans-serif" font-size="14" lengthAdjust="spacing" textLength="89.2637" x="2330.7758" y="885.012">VaccineType</text><line style="stroke:#181818;stroke-width:0.5;" x1="2301.31" x2="2449.5053" y1="893.3138" y2="893.3138"/><text fill="#000000" font-family="sans-serif" font-size="14" lengthAdjust="spacing" textLength="88.1699" x="2306.31" y="910.3089">-code: string</text><text fill="#000000" font-family="sans-serif" font-size="14" lengthAdjust="spacing" textLength="107.5771" x="2306.31" y="926.6057">-disease: string</text><text fill="#000000" font-family="sans-serif" font-size="14" lengthAdjust="spacing" textLength="132.1455" x="2306.31" y="942.9026">-technology: string</text><text fill="#000000" font-family="sans-serif" font-size="14" lengthAdjust="spacing" textLength="138.1953" x="2306.31" y="959.1995">-recoveryPeriod: int</text><line style="stroke:#181818;stroke-width:0.5;" x1="2301.31" x2="2449.5053" y1="966.5013" y2="966.5013"/><text fill="#000000" font-family="sans-serif" font-size="14" lengthAdjust="spacing" textLength="130.8398" x="2306.31" y="983.4964">+getCode(): string</text></g><!--class Vaccine--><g class="entity" data-qualified-name="Vaccine" data-source-line="89" id="ent0019"><rect fill="#F1F1F1" height="123.7813" rx="2.5" ry="2.5" style="stroke:#181818;stroke-width:0.5;" width="279.4355" x="1960.69" y="867.0169"/><text fill="#000000" font-family="sans-serif" font-size="14" lengthAdjust="spacing" textLength="54.9268" x="2072.9444" y="885.012">Vaccine</text><line style="stroke:#181818;stroke-width:0.5;" x1="1961.69" x2="2239.1255" y1="893.3138" y2="893.3138"/><text fill="#000000" font-family="sans-serif" font-size="14" lengthAdjust="spacing" textLength="95.3887" x="1966.69" y="910.3089">-brand: string</text><text fill="#000000" font-family="sans-serif" font-size="14" lengthAdjust="spacing" textLength="128.5908" x="1966.69" y="926.6057">-lotNumber: string</text><text fill="#000000" font-family="sans-serif" font-size="14" lengthAdjust="spacing" textLength="158.6963" x="1966.69" y="942.9026">-expirationDate: string</text><text fill="#000000" font-family="sans-serif" font-size="14" lengthAdjust="spacing" textLength="90.8359" x="1966.69" y="959.1995">-quantity: int</text><line style="stroke:#181818;stroke-width:0.5;" x1="1961.69" x2="2239.1255" y1="966.5013" y2="966.5013"/><text fill="#000000" font-family="sans-serif" font-size="14" lengthAdjust="spacing" textLength="267.4355" x="1966.69" y="983.4964">+decreaseQuantity(amount: int): void</text></g><!--class SNSUser--><g class="entity" data-qualified-name="SNSUser" data-source-line="97" id="ent0020"><rect fill="#F1F1F1" height="188.9688" rx="2.5" ry="2.5" style="stroke:#181818;stroke-width:0.5;" width="201.4443" x="3008.69" y="834.4169"/><text fill="#000000" font-family="sans-serif" font-size="14" lengthAdjust="spacing" textLength="60.1563" x="3079.334" y="852.412">SNSUser</text><line style="stroke:#181818;stroke-width:0.5;" x1="3009.69" x2="3209.1343" y1="860.7138" y2="860.7138"/><text fill="#000000" font-family="sans-serif" font-size="14" lengthAdjust="spacing" textLength="134.1074" x="3014.69" y="877.7089">-snsNumber: string</text><text fill="#000000" font-family="sans-serif" font-size="14" lengthAdjust="spacing" textLength="94.1104" x="3014.69" y="894.0057">-name: string</text><text fill="#000000" font-family="sans-serif" font-size="14" lengthAdjust="spacing" textLength="109.7168" x="3014.69" y="910.3026">-address: string</text><text fill="#000000" font-family="sans-serif" font-size="14" lengthAdjust="spacing" textLength="118.8701" x="3014.69" y="926.5995">-birthdate: string</text><text fill="#000000" font-family="sans-serif" font-size="14" lengthAdjust="spacing" textLength="98.2188" x="3014.69" y="942.8964">-phone: string</text><text fill="#000000" font-family="sans-serif" font-size="14" lengthAdjust="spacing" textLength="78.5996" x="3014.69" y="959.1932">-sex: string</text><text fill="#000000" font-family="sans-serif" font-size="14" lengthAdjust="spacing" textLength="189.4443" x="3014.69" y="975.4901">-citizenCardNumber: string</text><line style="stroke:#181818;stroke-width:0.5;" x1="3009.69" x2="3209.1343" y1="982.7919" y2="982.7919"/><text fill="#000000" font-family="sans-serif" font-size="14" lengthAdjust="spacing" textLength="176.292" x="3014.69" y="999.787">+getSnsNumber(): string</text><text fill="#000000" font-family="sans-serif" font-size="14" lengthAdjust="spacing" textLength="136.3018" x="3014.69" y="1016.0839">+getName(): string</text></g><!--class Appointment--><g class="entity" data-qualified-name="Appointment" data-source-line="109" id="ent0021"><rect fill="#F1F1F1" height="107.4844" rx="2.5" ry="2.5" style="stroke:#181818;stroke-width:0.5;" width="231.8301" x="2716.5" y="875.1669"/><text fill="#000000" font-family="sans-serif" font-size="14" lengthAdjust="spacing" textLength="90.7813" x="2787.0244" y="893.162">Appointment</text><line style="stroke:#181818;stroke-width:0.5;" x1="2717.5" x2="2947.3301" y1="901.4638" y2="901.4638"/><text fill="#000000" font-family="sans-serif" font-size="14" lengthAdjust="spacing" textLength="85.9756" x="2722.5" y="918.4589">-date: string</text><text fill="#000000" font-family="sans-serif" font-size="14" lengthAdjust="spacing" textLength="86.0371" x="2722.5" y="934.7557">-time: string</text><text fill="#000000" font-family="sans-serif" font-size="14" lengthAdjust="spacing" textLength="97.4258" x="2722.5" y="951.0526">-status: string</text><line style="stroke:#181818;stroke-width:0.5;" x1="2717.5" x2="2947.3301" y1="958.3544" y2="958.3544"/><text fill="#000000" font-family="sans-serif" font-size="14" lengthAdjust="spacing" textLength="219.8301" x="2722.5" y="975.3495">+setStatus(status: string): void</text></g><!--class Arrival--><g class="entity" data-qualified-name="Arrival" data-source-line="116" id="ent0022"><rect fill="#F1F1F1" height="58.5938" rx="2.5" ry="2.5" style="stroke:#181818;stroke-width:0.5;" width="145.834" x="2510.49" y="899.6069"/><text fill="#000000" font-family="sans-serif" font-size="14" lengthAdjust="spacing" textLength="45.7324" x="2560.5408" y="917.602">Arrival</text><line style="stroke:#181818;stroke-width:0.5;" x1="2511.49" x2="2655.324" y1="925.9038" y2="925.9038"/><text fill="#000000" font-family="sans-serif" font-size="14" lengthAdjust="spacing" textLength="133.834" x="2516.49" y="942.8989">-arrivalTime: string</text><line style="stroke:#181818;stroke-width:0.5;" x1="2511.49" x2="2655.324" y1="950.2006" y2="950.2006"/></g><!--class VaccinationProcess--><g class="entity" data-qualified-name="VaccinationProcess" data-source-line="120" id="ent0023"><rect fill="#F1F1F1" height="58.5938" rx="2.5" ry="2.5" style="stroke:#181818;stroke-width:0.5;" width="141.9238" x="1758.45" y="899.6069"/><text fill="#000000" font-family="sans-serif" font-size="14" lengthAdjust="spacing" textLength="135.3721" x="1761.7259" y="917.602">VaccinationProcess</text><line style="stroke:#181818;stroke-width:0.5;" x1="1759.45" x2="1899.3738" y1="925.9038" y2="925.9038"/><text fill="#000000" font-family="sans-serif" font-size="14" lengthAdjust="spacing" textLength="129.9238" x="1764.45" y="942.8989">-timestamp: string</text><line style="stroke:#181818;stroke-width:0.5;" x1="1759.45" x2="1899.3738" y1="950.2006" y2="950.2006"/></g><!--reverse link Employee to CenterAdministrator--><g class="link" data-entity-1="ent0011" data-entity-2="ent0012" data-link-type="extension" data-source-line="77" id="lnk13"><path d="M3279.58,1033.5669 C3279.58,1065.8669 3279.58,1081.8069 3279.58,1103.0569" fill="none" id="Employee-backto-CenterAdministrator" style="stroke:#181818;stroke-width:1;"/><polygon fill="none" points="3279.58,1015.5669,3273.58,1033.5669,3285.58,1033.5669,3279.58,1015.5669" style="stroke:#181818;stroke-width:1;"/></g><!--reverse link Employee to Nurse--><g class="link" data-entity-1="ent0011" data-entity-2="ent0014" data-link-type="extension" data-source-line="78" id="lnk15"><path d="M3372.41,1033.5669 C3372.41,1065.8669 3372.41,1081.8069 3372.41,1103.0569" fill="none" id="Employee-backto-Nurse" style="stroke:#181818;stroke-width:1;"/><polygon fill="none" points="3372.41,1015.5669,3366.41,1033.5669,3378.41,1033.5669,3372.41,1015.5669" style="stroke:#181818;stroke-width:1;"/></g><!--reverse link Employee to Receptionist--><g class="link" data-entity-1="ent0011" data-entity-2="ent0016" data-link-type="extension" data-source-line="79" id="lnk17"><path d="M3465.19,1033.5669 C3465.19,1065.8669 3465.19,1081.8069 3465.19,1103.0569" fill="none" id="Employee-backto-Receptionist" style="stroke:#181818;stroke-width:1;"/><polygon fill="none" points="3465.19,1015.5669,3459.19,1033.5669,3471.19,1033.5669,3465.19,1015.5669" style="stroke:#181818;stroke-width:1;"/></g><!--link MainMenu to VaccineController--><g class="link" data-entity-1="ent0002" data-entity-2="ent0003" data-link-type="dependency" data-source-line="125" id="lnk24"><path codeLine="125" d="M2660.89,71.6869 C2093.84,71.6869 315.41,71.6869 315.41,71.6869 C315.41,71.6869 315.41,225.2769 315.41,306.3169" fill="none" id="MainMenu-to-VaccineController" style="stroke:#181818;stroke-width:1;stroke-dasharray:7,7;"/><polygon fill="#181818" points="315.41,312.3169,319.41,303.3169,315.41,307.3169,311.41,303.3169,315.41,312.3169" style="stroke:#181818;stroke-width:1;"/><polygon fill="#000000" points="1323.8648,63.751,1333.1575,65.775,1332.5725,59.9263,1323.8648,63.751" style="stroke:#000000;stroke-width:1;"/><text fill="#000000" font-family="sans-serif" font-size="13" lengthAdjust="spacing" textLength="29.7832" x="1337.84" y="67.7538">uses</text></g><!--link MainMenu to EmployeeController--><g class="link" data-entity-1="ent0002" data-entity-2="ent0004" data-link-type="dependency" data-source-line="126" id="lnk25"><path codeLine="126" d="M2660.72,98.6869 C2220.77,98.6869 1087.41,98.6869 1087.41,98.6869 C1087.41,98.6869 1087.41,242.5869 1087.41,314.6169" fill="none" id="MainMenu-to-EmployeeController" style="stroke:#181818;stroke-width:1;stroke-dasharray:7,7;"/><polygon fill="#181818" points="1087.41,320.6169,1091.41,311.6169,1087.41,315.6169,1083.41,311.6169,1087.41,320.6169" style="stroke:#181818;stroke-width:1;"/><polygon fill="#000000" points="1719.1464,90.9331,1728.5071,92.6149,1727.7079,86.7916,1719.1464,90.9331" style="stroke:#000000;stroke-width:1;"/><text fill="#000000" font-family="sans-serif" font-size="13" lengthAdjust="spacing" textLength="29.7832" x="1733.1" y="94.7538">uses</text></g><!--link MainMenu to SNSUserController--><g class="link" data-entity-1="ent0002" data-entity-2="ent0005" data-link-type="dependency" data-source-line="127" id="lnk26"><path codeLine="127" d="M2660.81,125.6869 C2418.54,125.6869 2005.41,125.6869 2005.41,125.6869 C2005.41,125.6869 2005.41,260.2869 2005.41,322.9069" fill="none" id="MainMenu-to-SNSUserController" style="stroke:#181818;stroke-width:1;stroke-dasharray:7,7;"/><polygon fill="#181818" points="2005.41,328.9069,2009.41,319.9069,2005.41,323.9069,2001.41,319.9069,2005.41,328.9069" style="stroke:#181818;stroke-width:1;"/><polygon fill="#000000" points="2187.7121,118.694,2197.2204,118.902,2195.5267,113.2734,2187.7121,118.694" style="stroke:#000000;stroke-width:1;"/><text fill="#000000" font-family="sans-serif" font-size="13" lengthAdjust="spacing" textLength="29.7832" x="2201.5" y="121.7538">uses</text></g><!--link MainMenu to AppointmentController--><g class="link" data-entity-1="ent0002" data-entity-2="ent0006" data-link-type="dependency" data-source-line="128" id="lnk27"><path codeLine="128" d="M2832.41,151.9769 C2832.41,199.3369 2832.41,261.4869 2832.41,306.3369" fill="none" id="MainMenu-to-AppointmentController" style="stroke:#181818;stroke-width:1;stroke-dasharray:7,7;"/><polygon fill="#181818" points="2832.41,312.3369,2836.41,303.3369,2832.41,307.3369,2828.41,303.3369,2832.41,312.3369" style="stroke:#181818;stroke-width:1;"/><polygon fill="#000000" points="2793.41,228.7233,2796.3489,219.6782,2790.4711,219.6782,2793.41,228.7233" style="stroke:#000000;stroke-width:1;"/><text fill="#000000" font-family="sans-serif" font-size="13" lengthAdjust="spacing" textLength="29.7832" x="2802.41" y="228.2238">uses</text></g><!--link MainMenu to ArrivalController--><g class="link" data-entity-1="ent0002" data-entity-2="ent0007" data-link-type="dependency" data-source-line="129" id="lnk28"><path codeLine="129" d="M3003.99,125.6869 C3156.81,125.6869 3356.41,125.6869 3356.41,125.6869 C3356.41,125.6869 3356.41,260.2869 3356.41,322.9069" fill="none" id="MainMenu-to-ArrivalController" style="stroke:#181818;stroke-width:1;stroke-dasharray:7,7;"/><polygon fill="#181818" points="3356.41,328.9069,3360.41,319.9069,3356.41,323.9069,3352.41,319.9069,3356.41,328.9069" style="stroke:#181818;stroke-width:1;"/><polygon fill="#000000" points="3247.1732,119.695,3240.7153,112.7132,3237.8448,117.8425,3247.1732,119.695" style="stroke:#000000;stroke-width:1;"/><text fill="#000000" font-family="sans-serif" font-size="13" lengthAdjust="spacing" textLength="29.7832" x="3251.81" y="121.7538">uses</text></g><!--link MainMenu to VaccinationController--><g class="link" data-entity-1="ent0002" data-entity-2="ent0008" data-link-type="dependency" data-source-line="130" id="lnk29"><path codeLine="130" d="M3003.99,98.6869 C3284.26,98.6869 3809.41,98.6869 3809.41,98.6869 C3809.41,98.6869 3809.41,254.3769 3809.41,322.5869" fill="none" id="MainMenu-to-VaccinationController" style="stroke:#181818;stroke-width:1;stroke-dasharray:7,7;"/><polygon fill="#181818" points="3809.41,328.5869,3813.41,319.5869,3809.41,323.5869,3805.41,319.5869,3809.41,328.5869" style="stroke:#181818;stroke-width:1;"/><polygon fill="#000000" points="3487.4673,91.5925,3479.5399,86.3383,3477.9656,92.0014,3487.4673,91.5925" style="stroke:#000000;stroke-width:1;"/><text fill="#000000" font-family="sans-serif" font-size="13" lengthAdjust="spacing" textLength="29.7832" x="3491.65" y="94.7538">uses</text></g><!--link MainMenu to WaitingRoomController--><g class="link" data-entity-1="ent0002" data-entity-2="ent0009" data-link-type="dependency" data-source-line="131" id="lnk30"><path codeLine="131" d="M3003.85,71.6869 C3385.41,71.6869 4271.41,71.6869 4271.41,71.6869 C4271.41,71.6869 4271.41,249.5269 4271.41,322.7769" fill="none" id="MainMenu-to-WaitingRoomController" style="stroke:#181818;stroke-width:1;stroke-dasharray:7,7;"/><polygon fill="#181818" points="4271.41,328.7769,4275.41,319.7769,4271.41,323.7769,4267.41,319.7769,4271.41,328.7769" style="stroke:#181818;stroke-width:1;"/><polygon fill="#000000" points="3732.0747,64.2248,3723.7731,59.5844,3722.6309,65.3502,3732.0747,64.2248" style="stroke:#000000;stroke-width:1;"/><text fill="#000000" font-family="sans-serif" font-size="13" lengthAdjust="spacing" textLength="29.7832" x="3736.17" y="67.7538">uses</text></g><!--link VaccineController to HealthcareCenter--><g class="link" data-entity-1="ent0003" data-entity-2="ent0010" data-link-type="dependency" data-source-line="133" id="lnk31"><path codeLine="133" d="M315.41,404.3769 C315.41,485.7769 315.41,646.6869 315.41,646.6869 C315.41,646.6869 1984.53,646.6869 2601.66,646.6869" fill="none" id="VaccineController-to-HealthcareCenter" style="stroke:#181818;stroke-width:1;"/><polygon fill="#181818" points="2607.66,646.6869,2598.66,642.6869,2602.66,646.6869,2598.66,650.6869,2607.66,646.6869" style="stroke:#181818;stroke-width:1;"/><polygon fill="#000000" points="1283.3522,638.7803,1274.6672,634.9044,1274.0477,640.7495,1283.3522,638.7803" style="stroke:#000000;stroke-width:1;"/><text fill="#000000" font-family="sans-serif" font-size="13" lengthAdjust="spacing" textLength="52.5776" x="1287.38" y="642.7538">updates</text><text fill="#000000" font-family="sans-serif" font-size="13" lengthAdjust="spacing" textLength="8.271" x="2591.4441" y="644.4747">1</text></g><!--link EmployeeController to HealthcareCenter--><g class="link" data-entity-1="ent0004" data-entity-2="ent0010" data-link-type="dependency" data-source-line="134" id="lnk32"><path codeLine="134" d="M1087.41,396.2769 C1087.41,462.5969 1087.41,592.6869 1087.41,592.6869 C1087.41,592.6869 2130.56,592.6869 2601.86,592.6869" fill="none" id="EmployeeController-to-HealthcareCenter" style="stroke:#181818;stroke-width:1;"/><polygon fill="#181818" points="2607.86,592.6869,2598.86,588.6869,2602.86,592.6869,2598.86,596.6869,2607.86,592.6869" style="stroke:#181818;stroke-width:1;"/><polygon fill="#000000" points="1692.3885,584.8963,1683.7965,580.8185,1683.0405,586.6475,1692.3885,584.8963" style="stroke:#000000;stroke-width:1;"/><text fill="#000000" font-family="sans-serif" font-size="13" lengthAdjust="spacing" textLength="52.5776" x="1696.43" y="588.7538">updates</text><text fill="#000000" font-family="sans-serif" font-size="13" lengthAdjust="spacing" textLength="8.271" x="2591.6513" y="588.534">1</text></g><!--link SNSUserController to HealthcareCenter--><g class="link" data-entity-1="ent0005" data-entity-2="ent0010" data-link-type="dependency" data-source-line="135" id="lnk33"><path codeLine="135" d="M2455.37,388.1469 C2455.37,439.3669 2455.37,538.6869 2455.37,538.6869 C2455.37,538.6869 2520.9,538.6869 2601.64,538.6869" fill="none" id="SNSUserController-to-HealthcareCenter" style="stroke:#181818;stroke-width:1;"/><polygon fill="#181818" points="2607.64,538.6869,2598.64,534.6869,2602.64,538.6869,2598.64,542.6869,2607.64,538.6869" style="stroke:#181818;stroke-width:1;"/><polygon fill="#000000" points="2397.7243,533.8393,2393.5289,525.3041,2389.3133,529.4002,2397.7243,533.8393" style="stroke:#000000;stroke-width:1;"/><text fill="#000000" font-family="sans-serif" font-size="13" lengthAdjust="spacing" textLength="52.5776" x="2403.24" y="534.7538">updates</text><text fill="#000000" font-family="sans-serif" font-size="13" lengthAdjust="spacing" textLength="8.271" x="2591.4234" y="532.5934">1</text></g><!--link AppointmentController to HealthcareCenter--><g class="link" data-entity-1="ent0006" data-entity-2="ent0010" data-link-type="dependency" data-source-line="136" id="lnk34"><path codeLine="136" d="M2832.41,404.4069 C2832.41,426.7769 2832.41,448.9569 2832.41,477.4869" fill="none" id="AppointmentController-to-HealthcareCenter" style="stroke:#181818;stroke-width:1;"/><polygon fill="#181818" points="2832.41,483.4869,2836.41,474.4869,2832.41,478.4869,2828.41,474.4869,2832.41,483.4869" style="stroke:#181818;stroke-width:1;"/><polygon fill="#000000" points="2770.41,440.5133,2773.3489,431.4682,2767.4711,431.4682,2770.41,440.5133" style="stroke:#000000;stroke-width:1;"/><text fill="#000000" font-family="sans-serif" font-size="13" lengthAdjust="spacing" textLength="52.5776" x="2779.41" y="440.0138">updates</text><text fill="#000000" font-family="sans-serif" font-size="13" lengthAdjust="spacing" textLength="8.271" x="2824.1986" y="472.7258">1</text></g><!--link ArrivalController to HealthcareCenter--><g class="link" data-entity-1="ent0007" data-entity-2="ent0010" data-link-type="dependency" data-source-line="137" id="lnk35"><path codeLine="137" d="M3240.24,388.1469 C3240.24,439.3669 3240.24,538.6869 3240.24,538.6869 C3240.24,538.6869 3157.74,538.6869 3063.2,538.6869" fill="none" id="ArrivalController-to-HealthcareCenter" style="stroke:#181818;stroke-width:1;"/><polygon fill="#181818" points="3057.2,538.6869,3066.2,542.6869,3062.2,538.6869,3066.2,534.6869,3057.2,538.6869" style="stroke:#181818;stroke-width:1;"/><polygon fill="#000000" points="3158.1809,533.4922,3166.9754,529.8719,3163.1678,525.394,3158.1809,533.4922" style="stroke:#000000;stroke-width:1;"/><text fill="#000000" font-family="sans-serif" font-size="13" lengthAdjust="spacing" textLength="52.5776" x="3170.99" y="534.7538">updates</text><text fill="#000000" font-family="sans-serif" font-size="13" lengthAdjust="spacing" textLength="8.271" x="3064.7116" y="532.8682">1</text></g><!--link VaccinationController to HealthcareCenter--><g class="link" data-entity-1="ent0008" data-entity-2="ent0010" data-link-type="dependency" data-source-line="138" id="lnk36"><path codeLine="138" d="M3809.41,388.0469 C3809.41,451.0969 3809.41,592.6869 3809.41,592.6869 C3809.41,592.6869 3351.66,592.6869 3063.17,592.6869" fill="none" id="VaccinationController-to-HealthcareCenter" style="stroke:#181818;stroke-width:1;"/><polygon fill="#181818" points="3057.17,592.6869,3066.17,596.6869,3062.17,592.6869,3066.17,588.6869,3057.17,592.6869" style="stroke:#181818;stroke-width:1;"/><polygon fill="#000000" points="3468.788,585.5756,3478.2883,586.0178,3476.7338,580.3492,3468.788,585.5756" style="stroke:#000000;stroke-width:1;"/><text fill="#000000" font-family="sans-serif" font-size="13" lengthAdjust="spacing" textLength="52.5776" x="3482.61" y="588.7538">updates</text><text fill="#000000" font-family="sans-serif" font-size="13" lengthAdjust="spacing" textLength="8.271" x="3064.6806" y="588.6401">1</text></g><!--link WaitingRoomController to HealthcareCenter--><g class="link" data-entity-1="ent0009" data-entity-2="ent0010" data-link-type="dependency" data-source-line="139" id="lnk37"><path codeLine="139" d="M4271.41,388.1469 C4271.41,461.8069 4271.41,646.6869 4271.41,646.6869 C4271.41,646.6869 3467.97,646.6869 3063.26,646.6869" fill="none" id="WaitingRoomController-to-HealthcareCenter" style="stroke:#181818;stroke-width:1;"/><polygon fill="#181818" points="3057.26,646.6869,3066.26,650.6869,3062.26,646.6869,3066.26,642.6869,3057.26,646.6869" style="stroke:#181818;stroke-width:1;"/><polygon fill="#000000" points="3742.7207,639.2996,3752.1805,640.2807,3750.9505,634.533,3742.7207,639.2996" style="stroke:#000000;stroke-width:1;"/><text fill="#000000" font-family="sans-serif" font-size="13" lengthAdjust="spacing" textLength="36.334" x="3756.61" y="642.7538">reads</text><text fill="#000000" font-family="sans-serif" font-size="13" lengthAdjust="spacing" textLength="8.271" x="3064.7735" y="644.412">1</text></g><!--reverse link HealthcareCenter to Employee--><g class="link" data-entity-1="ent0010" data-entity-2="ent0011" data-link-type="aggregation" data-source-line="141" id="lnk38"><path codeLine="141" d="M3069.12,700.6869 C3217.39,700.6869 3372.41,700.6869 3372.41,700.6869 C3372.41,700.6869 3372.41,777.7369 3372.41,842.2969" fill="none" id="HealthcareCenter-backto-Employee" style="stroke:#181818;stroke-width:1;"/><polygon fill="none" points="3057.12,700.6869,3063.12,704.6869,3069.12,700.6869,3063.12,696.6869,3057.12,700.6869" style="stroke:#181818;stroke-width:1;"/><polygon fill="#000000" points="3226.1005,694.3686,3219.1481,687.879,3216.6614,693.2049,3226.1005,694.3686" style="stroke:#000000;stroke-width:1;"/><text fill="#000000" font-family="sans-serif" font-size="13" lengthAdjust="spacing" textLength="54.9453" x="3230.57" y="696.7538">employs</text><text fill="#000000" font-family="sans-serif" font-size="13" lengthAdjust="spacing" textLength="8.271" x="3064.6289" y="700.1839">1</text><text fill="#000000" font-family="sans-serif" font-size="13" lengthAdjust="spacing" textLength="23.0356" x="3348.4592" y="831.5761">0..*</text></g><!--reverse link HealthcareCenter to VaccineType--><g class="link" data-entity-1="ent0010" data-entity-2="ent0018" data-link-type="aggregation" data-source-line="142" id="lnk39"><path codeLine="142" d="M2632.17,766.6769 C2632.17,826.5769 2632.17,871.6869 2632.17,871.6869 C2632.17,871.6869 2526.47,871.6869 2450.71,871.6869" fill="none" id="HealthcareCenter-backto-VaccineType" style="stroke:#181818;stroke-width:1;"/><polygon fill="none" points="2632.17,754.6769,2628.17,760.6769,2632.17,766.6769,2636.17,760.6769,2632.17,754.6769" style="stroke:#181818;stroke-width:1;"/><polygon fill="#000000" points="2600.6124,865.7576,2609.9131,863.7709,2606.9691,858.6835,2600.6124,865.7576" style="stroke:#000000;stroke-width:1;"/><text fill="#000000" font-family="sans-serif" font-size="13" lengthAdjust="spacing" textLength="47.9946" x="2613.94" y="867.7538">catalog</text><text fill="#000000" font-family="sans-serif" font-size="13" lengthAdjust="spacing" textLength="8.271" x="2613.008" y="774.5668">1</text><text fill="#000000" font-family="sans-serif" font-size="13" lengthAdjust="spacing" textLength="23.0356" x="2458.4424" y="862.9955">0..*</text></g><!--reverse link HealthcareCenter to Vaccine--><g class="link" data-entity-1="ent0010" data-entity-2="ent0019" data-link-type="aggregation" data-source-line="143" id="lnk40"><path codeLine="143" d="M2595.81,700.6869 C2380.64,700.6869 2100.41,700.6869 2100.41,700.6869 C2100.41,700.6869 2100.41,798.9769 2100.41,866.5469" fill="none" id="HealthcareCenter-backto-Vaccine" style="stroke:#181818;stroke-width:1;"/><polygon fill="none" points="2607.81,700.6869,2601.81,696.6869,2595.81,700.6869,2601.81,704.6869,2607.81,700.6869" style="stroke:#181818;stroke-width:1;"/><polygon fill="#000000" points="2195.4387,693.8407,2204.9489,693.7559,2203.0828,688.1822,2195.4387,693.8407" style="stroke:#000000;stroke-width:1;"/><text fill="#000000" font-family="sans-serif" font-size="13" lengthAdjust="spacing" textLength="61.8706" x="2209.18" y="696.7538">inventory</text><text fill="#000000" font-family="sans-serif" font-size="13" lengthAdjust="spacing" textLength="8.271" x="2591.5995" y="700.4153">1</text><text fill="#000000" font-family="sans-serif" font-size="13" lengthAdjust="spacing" textLength="23.0356" x="2076.1544" y="855.98">0..*</text></g><!--reverse link HealthcareCenter to SNSUser--><g class="link" data-entity-1="ent0010" data-entity-2="ent0020" data-link-type="aggregation" data-source-line="144" id="lnk41"><path codeLine="144" d="M3032.75,766.5869 C3032.75,793.4469 3032.75,809.0969 3032.75,834.2369" fill="none" id="HealthcareCenter-backto-SNSUser" style="stroke:#181818;stroke-width:1;"/><polygon fill="none" points="3032.75,754.5869,3028.75,760.5869,3032.75,766.5869,3036.75,760.5869,3032.75,754.5869" style="stroke:#181818;stroke-width:1;"/><polygon fill="#000000" points="2972.75,790.9833,2975.6889,781.9382,2969.8111,781.9382,2972.75,790.9833" style="stroke:#000000;stroke-width:1;"/><text fill="#000000" font-family="sans-serif" font-size="13" lengthAdjust="spacing" textLength="50.1147" x="2981.75" y="790.4838">registry</text><text fill="#000000" font-family="sans-serif" font-size="13" lengthAdjust="spacing" textLength="8.271" x="3035.4947" y="774.4719">1</text><text fill="#000000" font-family="sans-serif" font-size="13" lengthAdjust="spacing" textLength="23.0356" x="3003.0014" y="823.4869">0..*</text></g><!--reverse link HealthcareCenter to Appointment--><g class="link" data-entity-1="ent0010" data-entity-2="ent0021" data-link-type="aggregation" data-source-line="145" id="lnk42"><path codeLine="145" d="M2832.41,766.5869 C2832.41,809.0669 2832.41,841.5369 2832.41,874.9269" fill="none" id="HealthcareCenter-backto-Appointment" style="stroke:#181818;stroke-width:1;"/><polygon fill="none" points="2832.41,754.5869,2828.41,760.5869,2832.41,766.5869,2836.41,760.5869,2832.41,754.5869" style="stroke:#181818;stroke-width:1;"/><polygon fill="#000000" points="2764.41,811.3233,2767.3489,802.2782,2761.4711,802.2782,2764.41,811.3233" style="stroke:#000000;stroke-width:1;"/><text fill="#000000" font-family="sans-serif" font-size="13" lengthAdjust="spacing" textLength="58.2588" x="2773.41" y="810.8238">schedule</text><text fill="#000000" font-family="sans-serif" font-size="13" lengthAdjust="spacing" textLength="8.271" x="2824.1986" y="774.4719">1</text><text fill="#000000" font-family="sans-serif" font-size="13" lengthAdjust="spacing" textLength="23.0356" x="2807.9382" y="864.1249">0..*</text></g><!--link Vaccine to VaccineType--><g class="link" data-entity-1="ent0019" data-entity-2="ent0018" data-link-type="association" data-source-line="147" id="lnk43"><path codeLine="147" d="M2240.33,929.6869 C2260.89,929.6869 2281.39,929.6869 2299.97,929.6869" fill="none" id="Vaccine-VaccineType" style="stroke:#181818;stroke-width:1;"/><polygon fill="#000000" points="2259.15,938.2533,2250.1049,935.3144,2250.1049,941.1922,2259.15,938.2533" style="stroke:#000000;stroke-width:1;"/><text fill="#000000" font-family="sans-serif" font-size="13" lengthAdjust="spacing" textLength="27.0474" x="2263.15" y="942.7538">is of</text><text fill="#000000" font-family="sans-serif" font-size="13" lengthAdjust="spacing" textLength="23.0356" x="2248.1386" y="926.4107">0..*</text><text fill="#000000" font-family="sans-serif" font-size="13" lengthAdjust="spacing" textLength="8.271" x="2283.792" y="926.0676">1</text></g><!--link Appointment to SNSUser--><g class="link" data-entity-1="ent0021" data-entity-2="ent0020" data-link-type="association" data-source-line="148" id="lnk44"><path codeLine="148" d="M2948.68,929.6869 C2968.52,929.6869 2988.98,929.6869 3008.39,929.6869" fill="none" id="Appointment-SNSUser" style="stroke:#181818;stroke-width:1;"/><polygon fill="#000000" points="2980.53,938.2533,2971.4849,935.3144,2971.4849,941.1922,2980.53,938.2533" style="stroke:#000000;stroke-width:1;"/><text fill="#000000" font-family="sans-serif" font-size="13" lengthAdjust="spacing" textLength="17.875" x="2984.53" y="942.7538">for</text><text fill="#000000" font-family="sans-serif" font-size="13" lengthAdjust="spacing" textLength="23.0356" x="2956.4668" y="926.3482">0..*</text><text fill="#000000" font-family="sans-serif" font-size="13" lengthAdjust="spacing" textLength="8.271" x="2992.3596" y="926.2448">1</text></g><!--link VaccineType to Appointment--><g class="link" data-entity-1="ent0018" data-entity-2="ent0021" data-link-type="association" data-source-line="149" id="lnk46"><path codeLine="149" d="M2450.88,887.6869 C2523,887.6869 2632.78,887.6869 2716.09,887.6869" fill="none" id="VaccineType-Appointment" style="stroke:#181818;stroke-width:1;"/><polygon fill="#000000" points="2513.48,879.2533,2522.5251,882.1922,2522.5251,876.3144,2513.48,879.2533" style="stroke:#000000;stroke-width:1;"/><text fill="#000000" font-family="sans-serif" font-size="13" lengthAdjust="spacing" textLength="55.2183" x="2527.48" y="883.7538">refers to</text><text fill="#000000" font-family="sans-serif" font-size="13" lengthAdjust="spacing" textLength="8.271" x="2458.4676" y="880.1164">1</text><text fill="#000000" font-family="sans-serif" font-size="13" lengthAdjust="spacing" textLength="23.0356" x="2685.3017" y="881.7888">0..*</text></g><!--link Arrival to Appointment--><g class="link" data-entity-1="ent0022" data-entity-2="ent0021" data-link-type="association" data-source-line="150" id="lnk47"><path codeLine="150" d="M2656.77,929.6869 C2675.42,929.6869 2695.92,929.6869 2716.14,929.6869" fill="none" id="Arrival-Appointment" style="stroke:#181818;stroke-width:1;"/><polygon fill="#000000" points="2660.95,938.2533,2651.9049,935.3144,2651.9049,941.1922,2660.95,938.2533" style="stroke:#000000;stroke-width:1;"/><text fill="#000000" font-family="sans-serif" font-size="13" lengthAdjust="spacing" textLength="56.4243" x="2664.95" y="942.7538">linked to</text><text fill="#000000" font-family="sans-serif" font-size="13" lengthAdjust="spacing" textLength="23.0356" x="2664.3297" y="926.1615">0..*</text><text fill="#000000" font-family="sans-serif" font-size="13" lengthAdjust="spacing" textLength="8.271" x="2700.0681" y="926.3066">1</text></g><!--link VaccinationProcess to Vaccine--><g class="link" data-entity-1="ent0023" data-entity-2="ent0019" data-link-type="association" data-source-line="151" id="lnk48"><path codeLine="151" d="M1900.61,929.6869 C1919.12,929.6869 1939.71,929.6869 1960.43,929.6869" fill="none" id="VaccinationProcess-Vaccine" style="stroke:#181818;stroke-width:1;"/><polygon fill="#000000" points="1918.52,938.2533,1909.4749,935.3144,1909.4749,941.1922,1918.52,938.2533" style="stroke:#000000;stroke-width:1;"/><text fill="#000000" font-family="sans-serif" font-size="13" lengthAdjust="spacing" textLength="29.7832" x="1922.52" y="942.7538">uses</text><text fill="#000000" font-family="sans-serif" font-size="13" lengthAdjust="spacing" textLength="23.0356" x="1908.4939" y="926.1199">0..*</text><text fill="#000000" font-family="sans-serif" font-size="13" lengthAdjust="spacing" textLength="8.271" x="1944.5636" y="926.3899">1</text></g><?plantuml-src bLTDR-Cs4BtxLn0vQTCuI2z5OGG6iawm3T04sNZRdcboOXEMI2r9kN6B_lSEPKga95ghx65X3UURZsycLjWSo3qOiPLabLDZoBsWMqqBCYTFm9-ef5lGCxCNigHEp9pIdRLQR2eBZqp9jVW7oCri9pWG9ZJBOHRfvqA2FPP0bBOx5Hr8nS50INwvYOIQohqJ_depczMHo1CLyWbaHVwT4Vpt4ocy8Fkq80SbU2D6qGga1Nt72o65iPfQfNjQc1pLQwO1PEz40-MFqcQbLaLf5mJjXTnU4VIr849Q_4NVwr-Vwlzd_pKP_aaPmo9NIbgjyXnqcoh6eHRy-JTiGiQmwE2R2mFKH08BR1U-DB0Nq4Bn9kn6gRnDTuibWlRECzVYHydXtIUxmKxou2fNKKdmNWfz3D_VxJ4HOGlMErzRnVPVjAfAu7UIh_4cWRls5RIyZQgxl287ODZqHdYvN8OsFHHbhewGwbDJJAEIuJduGaHKXQH5r2pAkGPZWg3SAHcT0o8b3v-CDRy7TJPnpUVZAqOEuHr4JXKrAfTHHUldzHy6z4X1NYCpqZnNnGRqv5es0fyBH_ISBI_KSqMCk_TkSMsMTsMfi1Hy7_OiH2ETLAvzS7NpiY9Kqcqjsm7RkmOyl6CxpD1rLtr7pGj8Zl8FvJEiM6jneFd8lNYDymdr7ZUrGicaFwOqZmW7rL89u_FxGPo_gB0eVrMgICH1Z4OAlsEiB43JWon6vcz0SxjZLCE94hsZUGTrNjI3dfTsmEPbdGVbCqFhcDyEI3Cn8tGlE59MZ_A0gIbzp0wjoL2zPGGeoaLB8PTfBcnUMsLSevks37p6uAAbu_f8ab0_OGM9xsi55TGHgCO0_W1PRonWeGvOxIi2vG3wwAvlDB_kJITlkLKCBGngBVCcs2qRfxD6DWQMQR2OunvWSIkGAwfv3p2Oq3FwTRdqvI_EUUhWmKL87THitSh9xUq1QREYUJnt4ai1Ja2BH1DAzghFbJPmxX2l44htmD7BKAUx2pZijssCPxuNzGQ_bxhfBrMkjiVUWVReYRQ1q8CLkezwqrzBsZGw6u6N3NYfkLAt8THiTXzHlJ_yNb5fXTyPV1uSt20nyDMVPRHGbRJj47LxLdzkjfaD2FEZP3KObYDeZKRb4Ak9DEeUhviCKo3imJarUDjI4qd6uxF9qL9RcLuaWsdKygnxF6YlvwKs9ZrzVulZfERRYrOCUzlQkSGmb2FUO3Lhz_4vLt_Bw-jbOlzTE4OqP9bGJco18zh33Mj4ERteZ1aCzeGHvVGYC6AGdkYjmMpOjjfqlYGNFryC9pWQbWuzpZRHnCcsmvPEDaqtUBhveDsJJTFDdsoUleeVcBi_2EkB6fmv0tMo9XStrzUN5s5sBd0Skf_ESefXF30MX55BaVy_PaiSo_fDOA9bmy0BlpjDDemv3Ma15tnUvH31kL6SQx7TsNdjerkZC4IzTT6KCWeflk70Jgldy9OCeU4Dj25M1TIbGdIBoONS0pyP9LZnV5tjc_uV?></g></svg>