<svg xmlns="http://www.w3.org/2000/svg" xmlns:xlink="http://www.w3.org/1999/xlink" contentStyleType="text/css" data-diagram-type="CLASS" height="1475px" preserveAspectRatio="none" style="width:1215px;height:1475px;background:#FFFFFF;" version="1.1" viewBox="0 0 1215 1475" width="1215px" zoomAndPan="magnify"><?plantuml 1.2026.7beta1?><defs/><g><g class="title" data-source-line="1"><text fill="#000000" font-family="sans-serif" font-size="14" font-weight="700" lengthAdjust="spacing" textLength="231" x="488.9719" y="22.9951">Domain Model - MedManager</text></g><!--class Employee--><g class="entity" data-qualified-name="Employee" data-source-line="7" id="ent0001"><rect fill="#F1F1F1" height="115.7813" rx="2.5" ry="2.5" style="stroke:#181818;stroke-width:0.5;" width="152.0889" x="629.9459" y="220.7769"/><text fill="#000000" font-family="sans-serif" font-size="14" lengthAdjust="spacing" textLength="69.3369" x="671.3218" y="238.772">Employee</text><line style="stroke:#181818;stroke-width:0.5;" x1="630.9459" x2="781.0347" y1="247.0737" y2="247.0737"/><text fill="#000000" font-family="sans-serif" font-size="14" lengthAdjust="spacing" textLength="44.7549" x="635.9459" y="264.0689">-name</text><text fill="#000000" font-family="sans-serif" font-size="14" lengthAdjust="spacing" textLength="60.3613" x="635.9459" y="280.3657">-address</text><text fill="#000000" font-family="sans-serif" font-size="14" lengthAdjust="spacing" textLength="48.8633" x="635.9459" y="296.6626">-phone</text><text fill="#000000" font-family="sans-serif" font-size="14" lengthAdjust="spacing" textLength="43.6611" x="635.9459" y="312.9595">-email</text><text fill="#000000" font-family="sans-serif" font-size="14" lengthAdjust="spacing" textLength="140.0889" x="635.9459" y="329.2564">-citizenCardNumber</text></g><!--class CenterAdministrator--><g class="entity" data-qualified-name="CenterAdministrator" data-source-line="15" id="ent0002"><rect fill="#F1F1F1" height="34.2969" rx="2.5" ry="2.5" style="stroke:#181818;stroke-width:0.5;" width="148.8027" x="778.5859" y="461.8569"/><text fill="#000000" font-family="sans-serif" font-size="14" lengthAdjust="spacing" textLength="142.8027" x="781.5859" y="479.852">CenterAdministrator</text><line style="stroke:#181818;stroke-width:0.5;" x1="779.5859" x2="926.3886" y1="488.1537" y2="488.1537"/></g><!--class Nurse--><g class="entity" data-qualified-name="Nurse" data-source-line="16" id="ent0004"><rect fill="#F1F1F1" height="34.2969" rx="2.5" ry="2.5" style="stroke:#181818;stroke-width:0.5;" width="47.0088" x="753.4859" y="606.7469"/><text fill="#000000" font-family="sans-serif" font-size="14" lengthAdjust="spacing" textLength="41.0088" x="756.4859" y="624.742">Nurse</text><line style="stroke:#181818;stroke-width:0.5;" x1="754.4859" x2="799.4947" y1="633.0437" y2="633.0437"/></g><!--class Receptionist--><g class="entity" data-qualified-name="Receptionist" data-source-line="17" id="ent0006"><rect fill="#F1F1F1" height="34.2969" rx="2.5" ry="2.5" style="stroke:#181818;stroke-width:0.5;" width="93.0283" x="609.4759" y="397.5569"/><text fill="#000000" font-family="sans-serif" font-size="14" lengthAdjust="spacing" textLength="87.0283" x="612.4759" y="415.552">Receptionist</text><line style="stroke:#181818;stroke-width:0.5;" x1="610.4759" x2="701.5042" y1="423.8538" y2="423.8538"/></g><!--class HealthcareCenter--><g class="entity" data-qualified-name="HealthcareCenter" data-source-line="19" id="ent0008"><rect fill="#F1F1F1" height="99.4844" rx="2.5" ry="2.5" style="stroke:#181818;stroke-width:0.5;" width="129.7373" x="385.1159" y="44.2969"/><text fill="#000000" font-family="sans-serif" font-size="14" lengthAdjust="spacing" textLength="123.7373" x="388.1159" y="62.292">HealthcareCenter</text><line style="stroke:#181818;stroke-width:0.5;" x1="386.1159" x2="513.8532" y1="70.5938" y2="70.5938"/><text fill="#000000" font-family="sans-serif" font-size="14" lengthAdjust="spacing" textLength="44.7549" x="391.1159" y="87.5889">-name</text><text fill="#000000" font-family="sans-serif" font-size="14" lengthAdjust="spacing" textLength="60.3613" x="391.1159" y="103.8857">-address</text><text fill="#000000" font-family="sans-serif" font-size="14" lengthAdjust="spacing" textLength="48.8633" x="391.1159" y="120.1826">-phone</text><text fill="#000000" font-family="sans-serif" font-size="14" lengthAdjust="spacing" textLength="43.6611" x="391.1159" y="136.4795">-email</text></g><!--class WaitingRoom--><g class="entity" data-qualified-name="WaitingRoom" data-source-line="26" id="ent0009"><rect fill="#F1F1F1" height="34.2969" rx="2.5" ry="2.5" style="stroke:#181818;stroke-width:0.5;" width="99.9463" x="223.0159" y="728.0769"/><text fill="#000000" font-family="sans-serif" font-size="14" lengthAdjust="spacing" textLength="93.9463" x="226.0159" y="746.072">WaitingRoom</text><line style="stroke:#181818;stroke-width:0.5;" x1="224.0159" x2="321.9622" y1="754.3737" y2="754.3737"/></g><!--class RecoveryRoom--><g class="entity" data-qualified-name="RecoveryRoom" data-source-line="27" id="ent0010"><rect fill="#F1F1F1" height="34.2969" rx="2.5" ry="2.5" style="stroke:#181818;stroke-width:0.5;" width="112.0391" x="887.9659" y="1208.6469"/><text fill="#000000" font-family="sans-serif" font-size="14" lengthAdjust="spacing" textLength="106.0391" x="890.9659" y="1226.642">RecoveryRoom</text><line style="stroke:#181818;stroke-width:0.5;" x1="888.9659" x2="999.0049" y1="1234.9438" y2="1234.9438"/></g><!--class SNSUser--><g class="entity" data-qualified-name="SNSUser" data-source-line="29" id="ent0011"><rect fill="#F1F1F1" height="148.375" rx="2.5" ry="2.5" style="stroke:#181818;stroke-width:0.5;" width="152.0889" x="461.9459" y="671.0469"/><text fill="#000000" font-family="sans-serif" font-size="14" lengthAdjust="spacing" textLength="60.1563" x="507.9122" y="689.042">SNSUser</text><line style="stroke:#181818;stroke-width:0.5;" x1="462.9459" x2="613.0347" y1="697.3437" y2="697.3437"/><text fill="#000000" font-family="sans-serif" font-size="14" lengthAdjust="spacing" textLength="84.752" x="467.9459" y="714.3389">-snsNumber</text><text fill="#000000" font-family="sans-serif" font-size="14" lengthAdjust="spacing" textLength="44.7549" x="467.9459" y="730.6357">-name</text><text fill="#000000" font-family="sans-serif" font-size="14" lengthAdjust="spacing" textLength="60.3613" x="467.9459" y="746.9326">-address</text><text fill="#000000" font-family="sans-serif" font-size="14" lengthAdjust="spacing" textLength="69.5146" x="467.9459" y="763.2295">-birthdate</text><text fill="#000000" font-family="sans-serif" font-size="14" lengthAdjust="spacing" textLength="48.8633" x="467.9459" y="779.5264">-phone</text><text fill="#000000" font-family="sans-serif" font-size="14" lengthAdjust="spacing" textLength="29.2441" x="467.9459" y="795.8232">-sex</text><text fill="#000000" font-family="sans-serif" font-size="14" lengthAdjust="spacing" textLength="140.0889" x="467.9459" y="812.1201">-citizenCardNumber</text></g><!--class Appointment--><g class="entity" data-qualified-name="Appointment" data-source-line="39" id="ent0012"><rect fill="#F1F1F1" height="66.8906" rx="2.5" ry="2.5" style="stroke:#181818;stroke-width:0.5;" width="96.7813" x="404.5959" y="896.4169"/><text fill="#000000" font-family="sans-serif" font-size="14" lengthAdjust="spacing" textLength="90.7813" x="407.5959" y="914.412">Appointment</text><line style="stroke:#181818;stroke-width:0.5;" x1="405.5959" x2="500.3771" y1="922.7137" y2="922.7137"/><text fill="#000000" font-family="sans-serif" font-size="14" lengthAdjust="spacing" textLength="71.3125" x="410.5959" y="939.7089">-dateTime</text><text fill="#000000" font-family="sans-serif" font-size="14" lengthAdjust="spacing" textLength="48.0703" x="410.5959" y="956.0057">-status</text></g><!--class Arrival--><g class="entity" data-qualified-name="Arrival" data-source-line="44" id="ent0013"><rect fill="#F1F1F1" height="50.5938" rx="2.5" ry="2.5" style="stroke:#181818;stroke-width:0.5;" width="96.4785" x="314.7459" y="526.1469"/><text fill="#000000" font-family="sans-serif" font-size="14" lengthAdjust="spacing" textLength="45.7324" x="340.1189" y="544.142">Arrival</text><line style="stroke:#181818;stroke-width:0.5;" x1="315.7459" x2="410.2244" y1="552.4437" y2="552.4437"/><text fill="#000000" font-family="sans-serif" font-size="14" lengthAdjust="spacing" textLength="84.4785" x="320.7459" y="569.4389">-arrivalTime</text></g><!--class AdverseReaction--><g class="entity" data-qualified-name="AdverseReaction" data-source-line="48" id="ent0014"><rect fill="#F1F1F1" height="50.5938" rx="2.5" ry="2.5" style="stroke:#181818;stroke-width:0.5;" width="124.46" x="542.7559" y="1200.4969"/><text fill="#000000" font-family="sans-serif" font-size="14" lengthAdjust="spacing" textLength="118.46" x="545.7559" y="1218.492">AdverseReaction</text><line style="stroke:#181818;stroke-width:0.5;" x1="543.7559" x2="666.2158" y1="1226.7937" y2="1226.7937"/><text fill="#000000" font-family="sans-serif" font-size="14" lengthAdjust="spacing" textLength="82.8926" x="548.7559" y="1243.7889">-description</text></g><!--class VaccinationProcess--><g class="entity" data-qualified-name="VaccinationProcess" data-source-line="52" id="ent0015"><rect fill="#F1F1F1" height="50.5938" rx="2.5" ry="2.5" style="stroke:#181818;stroke-width:0.5;" width="141.3721" x="530.2959" y="1040.3069"/><text fill="#000000" font-family="sans-serif" font-size="14" lengthAdjust="spacing" textLength="135.3721" x="533.2959" y="1058.302">VaccinationProcess</text><line style="stroke:#181818;stroke-width:0.5;" x1="531.2959" x2="670.6679" y1="1066.6037" y2="1066.6037"/><text fill="#000000" font-family="sans-serif" font-size="14" lengthAdjust="spacing" textLength="71.3125" x="536.2959" y="1083.5989">-dateTime</text></g><!--class Vaccine--><g class="entity" data-qualified-name="Vaccine" data-source-line="56" id="ent0016"><rect fill="#F1F1F1" height="115.7813" rx="2.5" ry="2.5" style="stroke:#181818;stroke-width:0.5;" width="121.3408" x="386.3159" y="1167.8969"/><text fill="#000000" font-family="sans-serif" font-size="14" lengthAdjust="spacing" textLength="54.9268" x="419.5229" y="1185.892">Vaccine</text><line style="stroke:#181818;stroke-width:0.5;" x1="387.3159" x2="506.6567" y1="1194.1938" y2="1194.1938"/><text fill="#000000" font-family="sans-serif" font-size="14" lengthAdjust="spacing" textLength="44.7549" x="392.3159" y="1211.1889">-name</text><text fill="#000000" font-family="sans-serif" font-size="14" lengthAdjust="spacing" textLength="46.0332" x="392.3159" y="1227.4857">-brand</text><text fill="#000000" font-family="sans-serif" font-size="14" lengthAdjust="spacing" textLength="79.2354" x="392.3159" y="1243.7826">-lotNumber</text><text fill="#000000" font-family="sans-serif" font-size="14" lengthAdjust="spacing" textLength="109.3408" x="392.3159" y="1260.0795">-expirationDate</text><text fill="#000000" font-family="sans-serif" font-size="14" lengthAdjust="spacing" textLength="63.417" x="392.3159" y="1276.3764">-quantity</text></g><!--class VaccineType--><g class="entity" data-qualified-name="VaccineType" data-source-line="64" id="ent0017"><rect fill="#F1F1F1" height="99.4844" rx="2.5" ry="2.5" style="stroke:#181818;stroke-width:0.5;" width="122.7764" x="676.5959" y="1360.6869"/><text fill="#000000" font-family="sans-serif" font-size="14" lengthAdjust="spacing" textLength="89.2637" x="693.3522" y="1378.682">VaccineType</text><line style="stroke:#181818;stroke-width:0.5;" x1="677.5959" x2="798.3722" y1="1386.9837" y2="1386.9837"/><text fill="#000000" font-family="sans-serif" font-size="14" lengthAdjust="spacing" textLength="38.8145" x="682.5959" y="1403.9789">-code</text><text fill="#000000" font-family="sans-serif" font-size="14" lengthAdjust="spacing" textLength="58.2217" x="682.5959" y="1420.2757">-disease</text><text fill="#000000" font-family="sans-serif" font-size="14" lengthAdjust="spacing" textLength="82.79" x="682.5959" y="1436.5726">-technology</text><text fill="#000000" font-family="sans-serif" font-size="14" lengthAdjust="spacing" textLength="110.7764" x="682.5959" y="1452.8695">-recoveryPeriod</text></g><!--reverse link Employee to CenterAdministrator--><g class="link" data-entity-1="ent0001" data-entity-2="ent0002" data-link-type="extension" data-source-line="15" id="lnk3"><path d="M769.5829,350.3308 C777.8829,360.1108 774.5359,356.6169 781.9859,366.5569 C806.1959,398.8769 830.6759,439.4269 843.6059,461.6269" fill="none" id="Employee-backto-CenterAdministrator" style="stroke:#181818;stroke-width:1;"/><polygon fill="none" points="757.9359,336.6069,765.0083,354.2131,774.1576,346.4484,757.9359,336.6069" style="stroke:#181818;stroke-width:1;stroke-linejoin:miter;stroke-miterlimit:10;"/></g><!--reverse link Employee to Nurse--><g class="link" data-entity-1="ent0001" data-entity-2="ent0004" data-link-type="extension" data-source-line="16" id="lnk5"><path d="M721.434,354.3533 C738.004,434.4133 763.5759,558.0669 773.5459,606.2469" fill="none" id="Employee-backto-Nurse" style="stroke:#181818;stroke-width:1;"/><polygon fill="none" points="717.7859,336.7269,715.5585,355.5694,727.3095,353.1373,717.7859,336.7269" style="stroke:#181818;stroke-width:1;stroke-linejoin:miter;stroke-miterlimit:10;"/></g><!--reverse link Employee to Receptionist--><g class="link" data-entity-1="ent0001" data-entity-2="ent0006" data-link-type="extension" data-source-line="17" id="lnk7"><path d="M678.3494,353.7634 C670.1794,375.6834 667.7559,382.1569 662.1159,397.2769" fill="none" id="Employee-backto-Receptionist" style="stroke:#181818;stroke-width:1;"/><polygon fill="none" points="684.6359,336.8969,672.7272,351.6679,683.9716,355.8589,684.6359,336.8969" style="stroke:#181818;stroke-width:1;stroke-linejoin:miter;stroke-miterlimit:10;"/></g><!--link HealthcareCenter to WaitingRoom--><g class="link" data-entity-1="ent0008" data-entity-2="ent0009" data-link-type="association" data-source-line="72" id="lnk18"><path codeLine="72" d="M440.2259,144.2369 C423.4559,222.2369 384.6859,377.5769 320.9859,496.1469 C312.9059,511.1969 305.0759,511.1169 296.9859,526.1469 C279.1559,559.2969 276.8359,569.5669 270.9859,606.7469 C264.1959,649.8969 268.1359,701.6069 270.9359,727.5969" fill="none" id="HealthcareCenter-WaitingRoom" style="stroke:#181818;stroke-width:1;"/><polygon fill="#000000" points="369.5924,419.5752,374.9357,411.7075,369.2908,410.0694,369.5924,419.5752" style="stroke:#000000;stroke-width:1;stroke-linejoin:miter;stroke-miterlimit:10;"/><text fill="#000000" font-family="sans-serif" font-size="13" lengthAdjust="spacing" textLength="22.9785" x="379.9859" y="419.2738">has</text><text fill="#000000" font-family="sans-serif" font-size="13" lengthAdjust="spacing" textLength="8.271" x="430.4804" y="163.7048">1</text><text fill="#000000" font-family="sans-serif" font-size="13" lengthAdjust="spacing" textLength="8.271" x="261.1236" y="716.9885">1</text></g><!--link HealthcareCenter to RecoveryRoom--><g class="link" data-entity-1="ent0008" data-entity-2="ent0010" data-link-type="association" data-source-line="73" id="lnk19"><path codeLine="73" d="M515.3559,104.2769 C653.3759,125.6369 961.9859,183.8869 961.9859,277.6669 C961.9859,277.6669 961.9859,277.6669 961.9859,1066.6069 C961.9859,1118.5669 952.2759,1179.5169 947.1259,1208.2369" fill="none" id="HealthcareCenter-RecoveryRoom" style="stroke:#181818;stroke-width:1;"/><polygon fill="#000000" points="968.8071,628.6198,968.2495,619.1256,962.7754,621.2666,968.8071,628.6198" style="stroke:#000000;stroke-width:1;stroke-linejoin:miter;stroke-miterlimit:10;"/><text fill="#000000" font-family="sans-serif" font-size="13" lengthAdjust="spacing" textLength="22.9785" x="975.9859" y="628.4638">has</text><text fill="#000000" font-family="sans-serif" font-size="13" lengthAdjust="spacing" textLength="8.271" x="522.9582" y="101.6505">1</text><text fill="#000000" font-family="sans-serif" font-size="13" lengthAdjust="spacing" textLength="8.271" x="938.9041" y="1197.65">1</text></g><!--link HealthcareCenter to Employee--><g class="link" data-entity-1="ent0008" data-entity-2="ent0001" data-link-type="association" data-source-line="74" id="lnk20"><path codeLine="74" d="M515.2459,141.5969 C550.0559,166.4269 593.0959,197.1269 629.4759,223.0869" fill="none" id="HealthcareCenter-Employee" style="stroke:#181818;stroke-width:1;"/><polygon fill="#000000" points="587.0563,185.247,581.3996,177.6016,577.9861,182.3866,587.0563,185.247" style="stroke:#000000;stroke-width:1;stroke-linejoin:miter;stroke-miterlimit:10;"/><text fill="#000000" font-family="sans-serif" font-size="13" lengthAdjust="spacing" textLength="54.9453" x="591.9859" y="186.8438">employs</text><text fill="#000000" font-family="sans-serif" font-size="13" lengthAdjust="spacing" textLength="8.271" x="522.8362" y="143.0524">1</text><text fill="#000000" font-family="sans-serif" font-size="13" lengthAdjust="spacing" textLength="23.0356" x="598.9137" y="214.7385">0..*</text></g><!--reverse link HealthcareCenter to Vaccine--><g class="link" data-entity-1="ent0008" data-entity-2="ent0016" data-link-type="aggregation" data-source-line="75" id="lnk21"><path codeLine="75" d="M372.9885,110.7204 C251.3585,137.1004 13.9859,198.2669 13.9859,277.6669 C13.9859,277.6669 13.9859,277.6669 13.9859,1066.6069 C13.9859,1144.8369 266.5059,1195.8369 385.8659,1215.5669" fill="none" id="HealthcareCenter-backto-Vaccine" style="stroke:#181818;stroke-width:1;"/><polygon fill="none" points="384.7159,108.1769,378.0044,105.5395,372.9885,110.7204,379.7,113.3577,384.7159,108.1769" style="stroke:#181818;stroke-width:1;stroke-linejoin:miter;stroke-miterlimit:10;"/><polygon fill="#000000" points="19.0441,628.9629,21.8775,619.8842,16,619.9527,19.0441,628.9629" style="stroke:#000000;stroke-width:1;stroke-linejoin:miter;stroke-miterlimit:10;"/><text fill="#000000" font-family="sans-serif" font-size="13" lengthAdjust="spacing" textLength="115.1528" x="27.9859" y="628.4638">manages stock of</text><text fill="#000000" font-family="sans-serif" font-size="13" lengthAdjust="spacing" textLength="8.271" x="368.7223" y="122.7533">1</text><text fill="#000000" font-family="sans-serif" font-size="13" lengthAdjust="spacing" textLength="23.0356" x="355.3787" y="1210.8132">0..*</text></g><!--link HealthcareCenter to VaccineType--><g class="link" data-entity-1="ent0008" data-entity-2="ent0017" data-link-type="association" data-source-line="76" id="lnk22"><path codeLine="76" d="M515.0859,100.8269 C671.0159,116.4869 1052.9859,166.2369 1052.9859,277.6669 C1052.9859,277.6669 1052.9859,277.6669 1052.9859,1226.7969 C1052.9859,1342.6369 891.5759,1386.2069 799.8459,1401.6269" fill="none" id="HealthcareCenter-VaccineType" style="stroke:#181818;stroke-width:1;"/><polygon fill="#000000" points="1059.0551,750.1776,1059.9918,740.7133,1054.2499,741.9703,1059.0551,750.1776" style="stroke:#000000;stroke-width:1;stroke-linejoin:miter;stroke-miterlimit:10;"/><text fill="#000000" font-family="sans-serif" font-size="13" lengthAdjust="spacing" textLength="132.958" x="1066.9859" y="749.7938">maintains catalog of</text><text fill="#000000" font-family="sans-serif" font-size="13" lengthAdjust="spacing" textLength="8.271" x="522.6587" y="114.4638">1</text><text fill="#000000" font-family="sans-serif" font-size="13" lengthAdjust="spacing" textLength="23.0356" x="807.4131" y="1397.0195">0..*</text></g><!--link HealthcareCenter to SNSUser--><g class="link" data-entity-1="ent0008" data-entity-2="ent0011" data-link-type="association" data-source-line="77" id="lnk23"><path codeLine="77" d="M449.3359,144.1769 C449.0859,220.1569 451.5759,370.5169 471.9859,496.1469 C481.6759,555.7569 499.5959,621.7669 514.3159,670.6969" fill="none" id="HealthcareCenter-SNSUser" style="stroke:#181818;stroke-width:1;"/><polygon fill="#000000" points="467.5983,419.7356,469.4072,410.3987,463.5736,411.1186,467.5983,419.7356" style="stroke:#000000;stroke-width:1;stroke-linejoin:miter;stroke-miterlimit:10;"/><text fill="#000000" font-family="sans-serif" font-size="13" lengthAdjust="spacing" textLength="109.459" x="475.9859" y="419.2738">keeps registry of</text><text fill="#000000" font-family="sans-serif" font-size="13" lengthAdjust="spacing" textLength="8.271" x="440.7294" y="163.9978">1</text><text fill="#000000" font-family="sans-serif" font-size="13" lengthAdjust="spacing" textLength="23.0356" x="487.965" y="659.9509">0..*</text></g><!--link HealthcareCenter to Appointment--><g class="link" data-entity-1="ent0008" data-entity-2="ent0012" data-link-type="association" data-source-line="78" id="lnk24"><path codeLine="78" d="M384.7059,107.1569 C301.1259,126.8869 166.9859,174.6069 166.9859,277.6669 C166.9859,277.6669 166.9859,277.6669 166.9859,746.2269 C166.9859,857.4269 322.4559,903.9369 404.1459,920.6969" fill="none" id="HealthcareCenter-Appointment" style="stroke:#181818;stroke-width:1;"/><polygon fill="#000000" points="172.1053,484.0719,174.8273,474.9591,168.9512,475.0996,172.1053,484.0719" style="stroke:#000000;stroke-width:1;stroke-linejoin:miter;stroke-miterlimit:10;"/><text fill="#000000" font-family="sans-serif" font-size="13" lengthAdjust="spacing" textLength="138.9121" x="180.9859" y="483.5738">manages schedule of</text><text fill="#000000" font-family="sans-serif" font-size="13" lengthAdjust="spacing" textLength="8.271" x="368.7112" y="104.881">1</text><text fill="#000000" font-family="sans-serif" font-size="13" lengthAdjust="spacing" textLength="23.0356" x="373.417" y="915.637">0..*</text></g><!--link CenterAdministrator to VaccineType--><g class="link" data-entity-1="ent0002" data-entity-2="ent0017" data-link-type="association" data-source-line="80" id="lnk25"><path codeLine="80" d="M849.5159,496.6369 C844.2859,523.1969 834.9859,576.8869 834.9859,622.8969 C834.9859,622.8969 834.9859,622.8969 834.9859,1226.7969 C834.9859,1276.3369 806.7959,1325.5369 780.8159,1360.3669" fill="none" id="CenterAdministrator-VaccineType" style="stroke:#181818;stroke-width:1;"/><polygon fill="#000000" points="839.5894,934.9175,843.2363,926.134,837.3769,925.6679,839.5894,934.9175" style="stroke:#000000;stroke-width:1;stroke-linejoin:miter;stroke-miterlimit:10;"/><text fill="#000000" font-family="sans-serif" font-size="13" lengthAdjust="spacing" textLength="59.8584" x="848.9859" y="934.4338">manages</text><text fill="#000000" font-family="sans-serif" font-size="13" lengthAdjust="spacing" textLength="8.271" x="839.361" y="516.1057">1</text><text fill="#000000" font-family="sans-serif" font-size="13" lengthAdjust="spacing" textLength="23.0356" x="762.0285" y="1349.7078">0..*</text></g><!--link Receptionist to SNSUser--><g class="link" data-entity-1="ent0006" data-entity-2="ent0011" data-link-type="association" data-source-line="82" id="lnk26"><path codeLine="82" d="M640.9659,432.3169 C623.2759,452.8269 594.3659,489.5069 578.9859,526.1469 C559.7159,572.0669 549.4559,627.2069 544.0159,670.5569" fill="none" id="Receptionist-SNSUser" style="stroke:#181818;stroke-width:1;"/><polygon fill="#000000" points="582.1012,556.1445,588.2327,548.8743,582.7884,546.6588,582.1012,556.1445" style="stroke:#000000;stroke-width:1;stroke-linejoin:miter;stroke-miterlimit:10;"/><text fill="#000000" font-family="sans-serif" font-size="13" lengthAdjust="spacing" textLength="57.1924" x="592.9859" y="556.0138">registers</text><text fill="#000000" font-family="sans-serif" font-size="13" lengthAdjust="spacing" textLength="8.271" x="627.4173" y="451.7798">1</text><text fill="#000000" font-family="sans-serif" font-size="13" lengthAdjust="spacing" textLength="23.0356" x="520.5128" y="660.0542">0..*</text></g><!--link Receptionist to Appointment--><g class="link" data-entity-1="ent0006" data-entity-2="ent0012" data-link-type="association" data-source-line="83" id="lnk27"><path codeLine="83" d="M656.3659,432.1769 C656.9259,461.3469 657.6459,523.9669 654.9859,576.7469 C649.5359,684.9469 672.2459,718.8369 631.9859,819.4169 C610.5359,873.0169 547.0259,902.1969 501.7659,916.6569" fill="none" id="Receptionist-Appointment" style="stroke:#181818;stroke-width:1;"/><polygon fill="#000000" points="657.4659,628.7266,663.0154,621.0031,657.4158,619.2162,657.4659,628.7266" style="stroke:#000000;stroke-width:1;stroke-linejoin:miter;stroke-miterlimit:10;"/><text fill="#000000" font-family="sans-serif" font-size="13" lengthAdjust="spacing" textLength="65.0317" x="667.9859" y="628.4638">schedules</text><text fill="#000000" font-family="sans-serif" font-size="13" lengthAdjust="spacing" textLength="8.271" x="647.2975" y="451.9116">1</text><text fill="#000000" font-family="sans-serif" font-size="13" lengthAdjust="spacing" textLength="23.0356" x="509.4914" y="928.0013">0..*</text></g><!--link SNSUser to Appointment--><g class="link" data-entity-1="ent0011" data-entity-2="ent0012" data-link-type="association" data-source-line="84" id="lnk28"><path codeLine="84" d="M465.2459,819.7969 C459.0859,829.1969 453.7759,839.1469 449.9859,849.4169 C444.5459,864.1769 444.5459,881.5469 446.2159,896.2769" fill="none" id="SNSUser-Appointment" style="stroke:#181818;stroke-width:1;"/><polygon fill="#000000" points="453.7786,862.8353,458.8146,854.7675,453.1106,853.3483,453.7786,862.8353" style="stroke:#000000;stroke-width:1;stroke-linejoin:miter;stroke-miterlimit:10;"/><text fill="#000000" font-family="sans-serif" font-size="13" lengthAdjust="spacing" textLength="65.0317" x="463.9859" y="862.4838">schedules</text><text fill="#000000" font-family="sans-serif" font-size="13" lengthAdjust="spacing" textLength="8.271" x="450.1835" y="839.435">1</text><text fill="#000000" font-family="sans-serif" font-size="13" lengthAdjust="spacing" textLength="23.0356" x="419.6223" y="885.2682">0..*</text></g><!--link Appointment to SNSUser--><g class="link" data-entity-1="ent0012" data-entity-2="ent0011" data-link-type="association" data-source-line="86" id="lnk29"><path codeLine="86" d="M501.7959,902.0869 C514.5259,892.5769 526.6959,880.6369 533.9859,866.4169 C541.2759,852.2069 544.5559,835.7569 545.5859,819.6669" fill="none" id="Appointment-SNSUser" style="stroke:#181818;stroke-width:1;"/><polygon fill="#000000" points="547.3318,853.5678,540.4926,860.1766,545.6833,862.9344,547.3318,853.5678" style="stroke:#000000;stroke-width:1;stroke-linejoin:miter;stroke-miterlimit:10;"/><text fill="#000000" font-family="sans-serif" font-size="13" lengthAdjust="spacing" textLength="32.3921" x="553.9859" y="862.4838">is for</text><text fill="#000000" font-family="sans-serif" font-size="13" lengthAdjust="spacing" textLength="23.0356" x="509.5253" y="894.6426">0..*</text><text fill="#000000" font-family="sans-serif" font-size="13" lengthAdjust="spacing" textLength="8.271" x="537.9415" y="839.5493">1</text></g><!--link Appointment to VaccineType--><g class="link" data-entity-1="ent0012" data-entity-2="ent0017" data-link-type="association" data-source-line="87" id="lnk30"><path codeLine="87" d="M429.2959,963.6369 C384.3359,1030.2169 297.2559,1183.4569 368.9859,1283.6869 C439.2959,1381.9269 590.9559,1404.2969 676.3359,1408.8369" fill="none" id="Appointment-VaccineType" style="stroke:#181818;stroke-width:1;"/><polygon fill="#000000" points="359.4119,1133.8353,357.593,1124.5003,352.4534,1127.3522,359.4119,1133.8353" style="stroke:#000000;stroke-width:1;stroke-linejoin:miter;stroke-miterlimit:10;"/><text fill="#000000" font-family="sans-serif" font-size="13" lengthAdjust="spacing" textLength="55.2183" x="365.9859" y="1133.9638">refers to</text><text fill="#000000" font-family="sans-serif" font-size="13" lengthAdjust="spacing" textLength="23.0356" x="399.8109" y="983.326">0..*</text><text fill="#000000" font-family="sans-serif" font-size="13" lengthAdjust="spacing" textLength="8.271" x="660.3515" y="1404.8038">1</text></g><!--link Receptionist to Arrival--><g class="link" data-entity-1="ent0006" data-entity-2="ent0013" data-link-type="association" data-source-line="89" id="lnk31"><path codeLine="89" d="M609.2459,426.6169 C578.8159,434.5269 538.6659,446.5169 504.9859,461.8569 C465.9759,479.6169 424.7759,506.3169 396.8659,525.7669" fill="none" id="Receptionist-Arrival" style="stroke:#181818;stroke-width:1;"/><polygon fill="#000000" points="505.4553,481.1884,514.8944,480.0251,512.408,474.6991,505.4553,481.1884" style="stroke:#000000;stroke-width:1;stroke-linejoin:miter;stroke-miterlimit:10;"/><text fill="#000000" font-family="sans-serif" font-size="13" lengthAdjust="spacing" textLength="57.1924" x="518.9859" y="483.5738">registers</text><text fill="#000000" font-family="sans-serif" font-size="13" lengthAdjust="spacing" textLength="8.271" x="593.1801" y="424.3974">1</text><text fill="#000000" font-family="sans-serif" font-size="13" lengthAdjust="spacing" textLength="23.0356" x="379.0455" y="515.177">0..*</text></g><!--link Arrival to SNSUser--><g class="link" data-entity-1="ent0013" data-entity-2="ent0011" data-link-type="association" data-source-line="90" id="lnk32"><path codeLine="90" d="M386.4459,577.2169 C395.1459,586.4469 405.0559,597.0369 413.9859,606.7469 C433.0359,627.4369 453.5459,650.0469 472.2959,670.8469" fill="none" id="Arrival-SNSUser" style="stroke:#181818;stroke-width:1;"/><polygon fill="#000000" points="453.365,627.6486,449.4183,618.9956,445.0859,622.968,453.365,627.6486" style="stroke:#000000;stroke-width:1;stroke-linejoin:miter;stroke-miterlimit:10;"/><text fill="#000000" font-family="sans-serif" font-size="13" lengthAdjust="spacing" textLength="12.5303" x="458.9859" y="628.4638">of</text><text fill="#000000" font-family="sans-serif" font-size="13" lengthAdjust="spacing" textLength="8.271" x="382.9775" y="596.9935">1</text><text fill="#000000" font-family="sans-serif" font-size="13" lengthAdjust="spacing" textLength="8.271" x="457.4487" y="659.8595">1</text></g><!--link Arrival to Appointment--><g class="link" data-entity-1="ent0013" data-entity-2="ent0012" data-link-type="association" data-source-line="91" id="lnk33"><path codeLine="91" d="M367.5159,577.0469 C369.2359,586.3469 371.2059,597.0369 372.9859,606.7469 C390.3559,701.2569 386.3659,726.7969 411.9859,819.4169 C419.2859,845.8169 430.2959,874.8069 439.0559,896.3169" fill="none" id="Arrival-Appointment" style="stroke:#181818;stroke-width:1;"/><polygon fill="#000000" points="418.0791,750.1723,418.9692,740.7035,413.2336,741.9887,418.0791,750.1723" style="stroke:#000000;stroke-width:1;stroke-linejoin:miter;stroke-miterlimit:10;"/><text fill="#000000" font-family="sans-serif" font-size="13" lengthAdjust="spacing" textLength="17.875" x="425.9859" y="749.7938">for</text><text fill="#000000" font-family="sans-serif" font-size="13" lengthAdjust="spacing" textLength="8.271" x="359.6699" y="596.7842">1</text><text fill="#000000" font-family="sans-serif" font-size="13" lengthAdjust="spacing" textLength="8.271" x="437.1275" y="885.316">1</text></g><!--link Arrival to WaitingRoom--><g class="link" data-entity-1="ent0013" data-entity-2="ent0009" data-link-type="association" data-source-line="92" id="lnk34"><path codeLine="92" d="M318.8659,577.0869 C308.1159,585.1669 297.7659,595.1069 290.9859,606.7469 C268.4459,645.4369 269.1559,700.4769 271.2359,727.6869" fill="none" id="Arrival-WaitingRoom" style="stroke:#181818;stroke-width:1;"/><polygon fill="#000000" points="294.4781,628.7305,300.0078,620.9927,294.4035,619.2203,294.4781,628.7305" style="stroke:#000000;stroke-width:1;stroke-linejoin:miter;stroke-miterlimit:10;"/><text fill="#000000" font-family="sans-serif" font-size="13" lengthAdjust="spacing" textLength="63.4829" x="304.9859" y="628.4638">queues in</text><text fill="#000000" font-family="sans-serif" font-size="13" lengthAdjust="spacing" textLength="23.0356" x="283.7031" y="596.4184">0..*</text><text fill="#000000" font-family="sans-serif" font-size="13" lengthAdjust="spacing" textLength="8.271" x="271.9655" y="717.1061">1</text></g><!--link Nurse to VaccinationProcess--><g class="link" data-entity-1="ent0004" data-entity-2="ent0015" data-link-type="association" data-source-line="94" id="lnk35"><path codeLine="94" d="M771.9559,641.5169 C759.8459,681.0169 727.6159,783.4069 693.9859,866.4169 C668.1559,930.1769 632.3659,1002.8469 613.6059,1039.9569" fill="none" id="Nurse-VaccinationProcess" style="stroke:#181818;stroke-width:1;"/><polygon fill="#000000" points="702.1392,862.6298,708.211,855.3096,702.7487,853.1388,702.1392,862.6298" style="stroke:#000000;stroke-width:1;stroke-linejoin:miter;stroke-miterlimit:10;"/><text fill="#000000" font-family="sans-serif" font-size="13" lengthAdjust="spacing" textLength="58.9443" x="712.9859" y="862.4838">executes</text><text fill="#000000" font-family="sans-serif" font-size="13" lengthAdjust="spacing" textLength="8.271" x="761.3418" y="660.9827">1</text><text fill="#000000" font-family="sans-serif" font-size="13" lengthAdjust="spacing" textLength="23.0356" x="590.8699" y="1029.3739">0..*</text></g><!--link Appointment to VaccinationProcess--><g class="link" data-entity-1="ent0012" data-entity-2="ent0015" data-link-type="association" data-source-line="95" id="lnk36"><path codeLine="95" d="M489.1859,963.5769 C515.3759,987.2469 550.1959,1018.7069 573.9759,1040.1969" fill="none" id="Appointment-VaccinationProcess" style="stroke:#181818;stroke-width:1;"/><polygon fill="#000000" points="548.6956,1005.2256,543.9551,996.9807,540.0142,1001.3418,548.6956,1005.2256" style="stroke:#000000;stroke-width:1;stroke-linejoin:miter;stroke-miterlimit:10;"/><text fill="#000000" font-family="sans-serif" font-size="13" lengthAdjust="spacing" textLength="59.8203" x="553.9859" y="1006.3738">results in</text><text fill="#000000" font-family="sans-serif" font-size="13" lengthAdjust="spacing" textLength="8.271" x="487.1476" y="983.255">1</text><text fill="#000000" font-family="sans-serif" font-size="13" lengthAdjust="spacing" textLength="8.271" x="558.4512" y="1029.2589">1</text></g><!--link VaccinationProcess to Vaccine--><g class="link" data-entity-1="ent0015" data-entity-2="ent0016" data-link-type="association" data-source-line="96" id="lnk37"><path codeLine="96" d="M530.0959,1084.3769 C509.8559,1092.5369 489.4059,1104.2469 474.9859,1120.8969 C463.7359,1133.8969 456.9559,1150.9669 452.8859,1167.5069" fill="none" id="VaccinationProcess-Vaccine" style="stroke:#181818;stroke-width:1;"/><polygon fill="#000000" points="476.5832,1133.1269,484.8921,1128.4994,480.5853,1124.4993,476.5832,1133.1269" style="stroke:#000000;stroke-width:1;stroke-linejoin:miter;stroke-miterlimit:10;"/><text fill="#000000" font-family="sans-serif" font-size="13" lengthAdjust="spacing" textLength="99.563" x="488.9859" y="1133.9638">uses dose from</text><text fill="#000000" font-family="sans-serif" font-size="13" lengthAdjust="spacing" textLength="8.271" x="513.92" y="1082.684">1</text><text fill="#000000" font-family="sans-serif" font-size="13" lengthAdjust="spacing" textLength="8.271" x="445.1212" y="1156.9756">1</text></g><!--link VaccinationProcess to AdverseReaction--><g class="link" data-entity-1="ent0015" data-entity-2="ent0014" data-link-type="association" data-source-line="98" id="lnk38"><path codeLine="98" d="M599.3359,1091.1869 C598.7959,1100.4969 598.2559,1111.1769 597.9859,1120.8969 C597.2359,1148.0069 599.7659,1179.0169 601.9959,1200.0469" fill="none" id="VaccinationProcess-AdverseReaction" style="stroke:#181818;stroke-width:1;"/><polygon fill="#000000" points="603.108,1134.4618,605.8251,1125.3476,599.949,1125.4912,603.108,1134.4618" style="stroke:#000000;stroke-width:1;stroke-linejoin:miter;stroke-miterlimit:10;"/><text fill="#000000" font-family="sans-serif" font-size="13" lengthAdjust="spacing" textLength="50.6733" x="611.9859" y="1133.9638">triggers</text><text fill="#000000" font-family="sans-serif" font-size="13" lengthAdjust="spacing" textLength="8.271" x="590.0616" y="1110.9196">1</text><text fill="#000000" font-family="sans-serif" font-size="13" lengthAdjust="spacing" textLength="24.8066" x="574.6227" y="1189.4408">0..1</text></g><!--link VaccinationProcess to RecoveryRoom--><g class="link" data-entity-1="ent0015" data-entity-2="ent0010" data-link-type="association" data-source-line="99" id="lnk39"><path codeLine="99" d="M654.5759,1091.3169 C725.2359,1123.9069 847.6459,1180.3569 908.0859,1208.2369" fill="none" id="VaccinationProcess-RecoveryRoom" style="stroke:#181818;stroke-width:1;"/><polygon fill="#000000" points="760.5262,1131.5573,753.5435,1125.1004,751.0818,1130.4379,760.5262,1131.5573" style="stroke:#000000;stroke-width:1;stroke-linejoin:miter;stroke-miterlimit:10;"/><text fill="#000000" font-family="sans-serif" font-size="13" lengthAdjust="spacing" textLength="91.0762" x="764.9859" y="1133.9638">routes user to</text><text fill="#000000" font-family="sans-serif" font-size="13" lengthAdjust="spacing" textLength="23.0356" x="641.3142" y="1111.0797">0..*</text><text fill="#000000" font-family="sans-serif" font-size="13" lengthAdjust="spacing" textLength="8.271" x="887.9081" y="1197.65">1</text></g><!--link Vaccine to VaccineType--><g class="link" data-entity-1="ent0016" data-entity-2="ent0017" data-link-type="association" data-source-line="101" id="lnk40"><path codeLine="101" d="M507.9059,1272.0869 C513.6259,1276.0769 519.3859,1279.9969 524.9859,1283.6869 C574.8559,1316.4769 633.3659,1350.7369 676.4359,1375.1869" fill="none" id="Vaccine-VaccineType" style="stroke:#181818;stroke-width:1;"/><polygon fill="#000000" points="608.251,1324.8625,602.069,1317.6353,599.0016,1322.6493,608.251,1324.8625" style="stroke:#000000;stroke-width:1;stroke-linejoin:miter;stroke-miterlimit:10;"/><text fill="#000000" font-family="sans-serif" font-size="13" lengthAdjust="spacing" textLength="27.0474" x="612.9859" y="1326.7538">is of</text><text fill="#000000" font-family="sans-serif" font-size="13" lengthAdjust="spacing" textLength="23.0356" x="515.8287" y="1273.4047">0..*</text><text fill="#000000" font-family="sans-serif" font-size="13" lengthAdjust="spacing" textLength="8.271" x="660.4637" y="1367.0527">1</text></g><?plantuml-src dLLDRzim3BtxLmYz31YGehtcK21e2xJ0aXL9jfqLYOc5sg8hqKMoOVzzb2t7Tk8wnG8OqGSV-VX4KMGe0_60kJHMp5539YPY3dekhTo1I_ohiOLqCXSgazxFY9pPb0JF2ktA_0PnawH6Wr36gGpgSGwKelO9OI48nGQ9C1VQE51aq2P9vKeyvaM61m3n9n7ycmWhSuX3gRK3x-EiID4sEy1CipXMXfY2lPTEByfymtJ_DixlmHAucSwDDPwS97G2zWHMju6ZwQ9q7ZxQN8A28h1cB-SsqUW9P4QfaWxgiF-JqP7vBybPsTqICMyvu3kuGxKKrrQBrG_VYUIjZn9SYBmnZb8j2GQOUDXVLdPM56WivPpfCNhmjpR7Y9uabRu3SSwyo-neBkjvXMYDDEVeOGcogfBMDtZbJ7K6hV5FgPInCYo-E5IStZcN4-F1EjiuQNKSPqWz2M5V65U5U6ZbUYkb9KE7C-_hGz56K7oH6Zh6W_JDZ42b5ZFS7UA2YsVx0iwW3bw_YCba8fQFtsRhv--BLPWbPmLsTNl56zLVfrx4LAJIYxjH-surNGRSN5z_lMglwfIhDGm_n60BQcIVYhng9fxh0jMhmEtbW5rH0vuBZZylb2J9wdtAHtD5fk8LeF0izIwqWiEdmDqgxoIWKj0bDypAHJBKPCRpgDqmjDTNFk9TC-PRmOWHG9zhmp606bUVjK-wMz4wbatBodYnvKJlHepxQJlOXXpuAHXFl6aJ_SIRrKu9jrogSnYmwASOwJPcFQhzw_DMGibAy5l8LEk7OUX0Uus7xyGU5B-9_bIJsnD1Jc3SbSkCOhG1YpDy4BFq74SZ4ziwfimqHv3CEOXnqbcdWX_ntQwMTmZT4-YaNpYiCYs3_lM9Djp6Ie1h9XpLFm00?></g></svg>