<svg xmlns="http://www.w3.org/2000/svg" xmlns:xlink="http://www.w3.org/1999/xlink" contentStyleType="text/css" data-diagram-type="CLASS" height="1524px" preserveAspectRatio="none" style="width:1216px;height:1524px;background:#FFFFFF;" version="1.1" viewBox="0 0 1216 1524" width="1216px" zoomAndPan="magnify"><?plantuml 1.2026.3beta6?><defs/><g><g class="title" data-source-line="1"><text fill="#000000" font-family="sans-serif" font-size="14" font-weight="700" lengthAdjust="spacing" textLength="231" x="489.0288" y="22.9951">Domain Model - MedManager</text></g><!--class Employee--><g class="entity" data-qualified-name="Employee" data-source-line="7" id="ent0002"><rect fill="#F1F1F1" height="115.7813" rx="2.5" ry="2.5" style="stroke:#181818;stroke-width:0.5;" width="152.0889" x="630.0595" y="269.6769"/><text fill="#000000" font-family="sans-serif" font-size="14" lengthAdjust="spacing" textLength="69.3369" x="671.4355" y="287.672">Employee</text><line style="stroke:#181818;stroke-width:0.5;" x1="631.0595" x2="781.1484" y1="295.9737" y2="295.9737"/><text fill="#000000" font-family="sans-serif" font-size="14" lengthAdjust="spacing" textLength="44.7549" x="636.0595" y="312.9689">-name</text><text fill="#000000" font-family="sans-serif" font-size="14" lengthAdjust="spacing" textLength="60.3613" x="636.0595" y="329.2657">-address</text><text fill="#000000" font-family="sans-serif" font-size="14" lengthAdjust="spacing" textLength="48.8633" x="636.0595" y="345.5626">-phone</text><text fill="#000000" font-family="sans-serif" font-size="14" lengthAdjust="spacing" textLength="43.6611" x="636.0595" y="361.8595">-email</text><text fill="#000000" font-family="sans-serif" font-size="14" lengthAdjust="spacing" textLength="140.0889" x="636.0595" y="378.1564">-citizenCardNumber</text></g><!--class CenterAdministrator--><g class="entity" data-qualified-name="CenterAdministrator" data-source-line="15" id="ent0003"><rect fill="#F1F1F1" height="34.2969" rx="2.5" ry="2.5" style="stroke:#181818;stroke-width:0.5;" width="148.8027" x="778.6995" y="510.7569"/><text fill="#000000" font-family="sans-serif" font-size="14" lengthAdjust="spacing" textLength="142.8027" x="781.6995" y="528.752">CenterAdministrator</text><line style="stroke:#181818;stroke-width:0.5;" x1="779.6995" x2="926.5023" y1="537.0538" y2="537.0538"/></g><!--class Nurse--><g class="entity" data-qualified-name="Nurse" data-source-line="16" id="ent0005"><rect fill="#F1F1F1" height="34.2969" rx="2.5" ry="2.5" style="stroke:#181818;stroke-width:0.5;" width="47.0088" x="753.5995" y="655.6469"/><text fill="#000000" font-family="sans-serif" font-size="14" lengthAdjust="spacing" textLength="41.0088" x="756.5995" y="673.642">Nurse</text><line style="stroke:#181818;stroke-width:0.5;" x1="754.5995" x2="799.6083" y1="681.9438" y2="681.9438"/></g><!--class Receptionist--><g class="entity" data-qualified-name="Receptionist" data-source-line="17" id="ent0007"><rect fill="#F1F1F1" height="34.2969" rx="2.5" ry="2.5" style="stroke:#181818;stroke-width:0.5;" width="93.0283" x="609.5895" y="446.4569"/><text fill="#000000" font-family="sans-serif" font-size="14" lengthAdjust="spacing" textLength="87.0283" x="612.5895" y="464.452">Receptionist</text><line style="stroke:#181818;stroke-width:0.5;" x1="610.5895" x2="701.6179" y1="472.7538" y2="472.7538"/></g><!--class HealthcareCenter--><g class="entity" data-qualified-name="HealthcareCenter" data-source-line="19" id="ent0009"><rect fill="#F1F1F1" height="148.375" rx="2.5" ry="2.5" style="stroke:#181818;stroke-width:0.5;" width="195.6953" x="352.2495" y="44.2969"/><text fill="#000000" font-family="sans-serif" font-size="14" lengthAdjust="spacing" textLength="123.7373" x="388.2285" y="62.292">HealthcareCenter</text><line style="stroke:#181818;stroke-width:0.5;" x1="353.2495" x2="546.9449" y1="70.5938" y2="70.5938"/><text fill="#000000" font-family="sans-serif" font-size="14" lengthAdjust="spacing" textLength="44.7549" x="358.2495" y="87.5889">-name</text><text fill="#000000" font-family="sans-serif" font-size="14" lengthAdjust="spacing" textLength="60.3613" x="358.2495" y="103.8857">-address</text><text fill="#000000" font-family="sans-serif" font-size="14" lengthAdjust="spacing" textLength="48.8633" x="358.2495" y="120.1826">-phone</text><text fill="#000000" font-family="sans-serif" font-size="14" lengthAdjust="spacing" textLength="43.6611" x="358.2495" y="136.4795">-email</text><text fill="#000000" font-family="sans-serif" font-size="14" lengthAdjust="spacing" textLength="102.6553" x="358.2495" y="152.7764">-openingHours</text><text fill="#000000" font-family="sans-serif" font-size="14" lengthAdjust="spacing" textLength="95.1631" x="358.2495" y="169.0732">-closingHours</text><text fill="#000000" font-family="sans-serif" font-size="14" lengthAdjust="spacing" textLength="183.6953" x="358.2495" y="185.3701">-vaccinesPerHourCapacity</text></g><!--class WaitingRoom--><g class="entity" data-qualified-name="WaitingRoom" data-source-line="29" id="ent0010"><rect fill="#F1F1F1" height="34.2969" rx="2.5" ry="2.5" style="stroke:#181818;stroke-width:0.5;" width="99.9463" x="223.1295" y="776.9769"/><text fill="#000000" font-family="sans-serif" font-size="14" lengthAdjust="spacing" textLength="93.9463" x="226.1295" y="794.972">WaitingRoom</text><line style="stroke:#181818;stroke-width:0.5;" x1="224.1295" x2="322.0758" y1="803.2738" y2="803.2738"/></g><!--class RecoveryRoom--><g class="entity" data-qualified-name="RecoveryRoom" data-source-line="30" id="ent0011"><rect fill="#F1F1F1" height="34.2969" rx="2.5" ry="2.5" style="stroke:#181818;stroke-width:0.5;" width="112.0391" x="888.0795" y="1257.5469"/><text fill="#000000" font-family="sans-serif" font-size="14" lengthAdjust="spacing" textLength="106.0391" x="891.0795" y="1275.542">RecoveryRoom</text><line style="stroke:#181818;stroke-width:0.5;" x1="889.0795" x2="999.1186" y1="1283.8438" y2="1283.8438"/></g><!--class SNSUser--><g class="entity" data-qualified-name="SNSUser" data-source-line="32" id="ent0012"><rect fill="#F1F1F1" height="148.375" rx="2.5" ry="2.5" style="stroke:#181818;stroke-width:0.5;" width="152.0889" x="462.0595" y="719.9469"/><text fill="#000000" font-family="sans-serif" font-size="14" lengthAdjust="spacing" textLength="60.1563" x="508.0259" y="737.942">SNSUser</text><line style="stroke:#181818;stroke-width:0.5;" x1="463.0595" x2="613.1484" y1="746.2438" y2="746.2438"/><text fill="#000000" font-family="sans-serif" font-size="14" lengthAdjust="spacing" textLength="84.752" x="468.0595" y="763.2389">-snsNumber</text><text fill="#000000" font-family="sans-serif" font-size="14" lengthAdjust="spacing" textLength="44.7549" x="468.0595" y="779.5357">-name</text><text fill="#000000" font-family="sans-serif" font-size="14" lengthAdjust="spacing" textLength="60.3613" x="468.0595" y="795.8326">-address</text><text fill="#000000" font-family="sans-serif" font-size="14" lengthAdjust="spacing" textLength="69.5146" x="468.0595" y="812.1295">-birthdate</text><text fill="#000000" font-family="sans-serif" font-size="14" lengthAdjust="spacing" textLength="48.8633" x="468.0595" y="828.4264">-phone</text><text fill="#000000" font-family="sans-serif" font-size="14" lengthAdjust="spacing" textLength="29.2441" x="468.0595" y="844.7232">-sex</text><text fill="#000000" font-family="sans-serif" font-size="14" lengthAdjust="spacing" textLength="140.0889" x="468.0595" y="861.0201">-citizenCardNumber</text></g><!--class Appointment--><g class="entity" data-qualified-name="Appointment" data-source-line="42" id="ent0013"><rect fill="#F1F1F1" height="66.8906" rx="2.5" ry="2.5" style="stroke:#181818;stroke-width:0.5;" width="96.7813" x="404.7095" y="945.3169"/><text fill="#000000" font-family="sans-serif" font-size="14" lengthAdjust="spacing" textLength="90.7813" x="407.7095" y="963.312">Appointment</text><line style="stroke:#181818;stroke-width:0.5;" x1="405.7095" x2="500.4908" y1="971.6138" y2="971.6138"/><text fill="#000000" font-family="sans-serif" font-size="14" lengthAdjust="spacing" textLength="71.3125" x="410.7095" y="988.6089">-dateTime</text><text fill="#000000" font-family="sans-serif" font-size="14" lengthAdjust="spacing" textLength="48.0703" x="410.7095" y="1004.9057">-status</text></g><!--class Arrival--><g class="entity" data-qualified-name="Arrival" data-source-line="47" id="ent0014"><rect fill="#F1F1F1" height="50.5938" rx="2.5" ry="2.5" style="stroke:#181818;stroke-width:0.5;" width="96.4785" x="314.8595" y="575.0469"/><text fill="#000000" font-family="sans-serif" font-size="14" lengthAdjust="spacing" textLength="45.7324" x="340.2326" y="593.042">Arrival</text><line style="stroke:#181818;stroke-width:0.5;" x1="315.8595" x2="410.3381" y1="601.3438" y2="601.3438"/><text fill="#000000" font-family="sans-serif" font-size="14" lengthAdjust="spacing" textLength="84.4785" x="320.8595" y="618.3389">-arrivalTime</text></g><!--class AdverseReaction--><g class="entity" data-qualified-name="AdverseReaction" data-source-line="51" id="ent0015"><rect fill="#F1F1F1" height="50.5938" rx="2.5" ry="2.5" style="stroke:#181818;stroke-width:0.5;" width="124.46" x="542.8695" y="1249.3969"/><text fill="#000000" font-family="sans-serif" font-size="14" lengthAdjust="spacing" textLength="118.46" x="545.8695" y="1267.392">AdverseReaction</text><line style="stroke:#181818;stroke-width:0.5;" x1="543.8695" x2="666.3295" y1="1275.6938" y2="1275.6938"/><text fill="#000000" font-family="sans-serif" font-size="14" lengthAdjust="spacing" textLength="82.8926" x="548.8695" y="1292.6889">-description</text></g><!--class VaccinationProcess--><g class="entity" data-qualified-name="VaccinationProcess" data-source-line="55" id="ent0016"><rect fill="#F1F1F1" height="50.5938" rx="2.5" ry="2.5" style="stroke:#181818;stroke-width:0.5;" width="141.3721" x="530.4095" y="1089.2069"/><text fill="#000000" font-family="sans-serif" font-size="14" lengthAdjust="spacing" textLength="135.3721" x="533.4095" y="1107.202">VaccinationProcess</text><line style="stroke:#181818;stroke-width:0.5;" x1="531.4095" x2="670.7816" y1="1115.5037" y2="1115.5037"/><text fill="#000000" font-family="sans-serif" font-size="14" lengthAdjust="spacing" textLength="71.3125" x="536.4095" y="1132.4989">-dateTime</text></g><!--class Vaccine--><g class="entity" data-qualified-name="Vaccine" data-source-line="59" id="ent0017"><rect fill="#F1F1F1" height="115.7813" rx="2.5" ry="2.5" style="stroke:#181818;stroke-width:0.5;" width="121.3408" x="386.4295" y="1216.7969"/><text fill="#000000" font-family="sans-serif" font-size="14" lengthAdjust="spacing" textLength="54.9268" x="419.6366" y="1234.792">Vaccine</text><line style="stroke:#181818;stroke-width:0.5;" x1="387.4295" x2="506.7704" y1="1243.0938" y2="1243.0938"/><text fill="#000000" font-family="sans-serif" font-size="14" lengthAdjust="spacing" textLength="44.7549" x="392.4295" y="1260.0889">-name</text><text fill="#000000" font-family="sans-serif" font-size="14" lengthAdjust="spacing" textLength="46.0332" x="392.4295" y="1276.3857">-brand</text><text fill="#000000" font-family="sans-serif" font-size="14" lengthAdjust="spacing" textLength="79.2354" x="392.4295" y="1292.6826">-lotNumber</text><text fill="#000000" font-family="sans-serif" font-size="14" lengthAdjust="spacing" textLength="109.3408" x="392.4295" y="1308.9795">-expirationDate</text><text fill="#000000" font-family="sans-serif" font-size="14" lengthAdjust="spacing" textLength="63.417" x="392.4295" y="1325.2764">-quantity</text></g><!--class VaccineType--><g class="entity" data-qualified-name="VaccineType" data-source-line="67" id="ent0018"><rect fill="#F1F1F1" height="99.4844" rx="2.5" ry="2.5" style="stroke:#181818;stroke-width:0.5;" width="122.7764" x="676.7095" y="1409.5869"/><text fill="#000000" font-family="sans-serif" font-size="14" lengthAdjust="spacing" textLength="89.2637" x="693.4659" y="1427.582">VaccineType</text><line style="stroke:#181818;stroke-width:0.5;" x1="677.7095" x2="798.4859" y1="1435.8838" y2="1435.8838"/><text fill="#000000" font-family="sans-serif" font-size="14" lengthAdjust="spacing" textLength="38.8145" x="682.7095" y="1452.8789">-code</text><text fill="#000000" font-family="sans-serif" font-size="14" lengthAdjust="spacing" textLength="58.2217" x="682.7095" y="1469.1757">-disease</text><text fill="#000000" font-family="sans-serif" font-size="14" lengthAdjust="spacing" textLength="82.79" x="682.7095" y="1485.4726">-technology</text><text fill="#000000" font-family="sans-serif" font-size="14" lengthAdjust="spacing" textLength="110.7764" x="682.7095" y="1501.7695">-recoveryPeriod</text></g><!--reverse link Employee to CenterAdministrator--><g class="link" data-entity-1="ent0002" data-entity-2="ent0003" data-link-type="extension" data-source-line="15" id="lnk4"><path d="M769.6966,399.2308 C777.9966,409.0108 774.6495,405.5169 782.0995,415.4569 C806.3095,447.7769 830.7895,488.3269 843.7195,510.5269" fill="none" id="Employee-backto-CenterAdministrator" style="stroke:#181818;stroke-width:1;"/><polygon fill="none" points="758.0495,385.5069,765.122,403.1131,774.2713,395.3484,758.0495,385.5069" style="stroke:#181818;stroke-width:1;"/></g><!--reverse link Employee to Nurse--><g class="link" data-entity-1="ent0002" data-entity-2="ent0005" data-link-type="extension" data-source-line="16" id="lnk6"><path d="M721.5477,403.2533 C738.1177,483.3133 763.6895,606.9669 773.6595,655.1469" fill="none" id="Employee-backto-Nurse" style="stroke:#181818;stroke-width:1;"/><polygon fill="none" points="717.8995,385.6269,715.6722,404.4694,727.4232,402.0373,717.8995,385.6269" style="stroke:#181818;stroke-width:1;"/></g><!--reverse link Employee to Receptionist--><g class="link" data-entity-1="ent0002" data-entity-2="ent0007" data-link-type="extension" data-source-line="17" id="lnk8"><path d="M678.4631,402.6634 C670.2931,424.5834 667.8695,431.0569 662.2295,446.1769" fill="none" id="Employee-backto-Receptionist" style="stroke:#181818;stroke-width:1;"/><polygon fill="none" points="684.7495,385.7969,672.8409,400.5679,684.0852,404.7589,684.7495,385.7969" style="stroke:#181818;stroke-width:1;"/></g><!--link HealthcareCenter to WaitingRoom--><g class="link" data-entity-1="ent0009" data-entity-2="ent0010" data-link-type="association" data-source-line="75" id="lnk19"><path codeLine="75" d="M436.6695,193.1369 C418.7295,280.6769 381.9595,429.4269 321.0995,545.0469 C313.1495,560.1569 305.1895,560.0169 297.0995,575.0469 C279.2695,608.1969 276.9495,618.4669 271.0995,655.6469 C264.3095,698.7969 268.2495,750.5069 271.0495,776.4969" fill="none" id="HealthcareCenter-WaitingRoom" style="stroke:#181818;stroke-width:1;"/><polygon fill="#000000" points="368.734,468.4832,374.0315,460.5846,368.3771,458.9793,368.734,468.4832" style="stroke:#000000;stroke-width:1;"/><text fill="#000000" font-family="sans-serif" font-size="13" lengthAdjust="spacing" textLength="22.9785" x="379.0995" y="468.1738">has</text><text fill="#000000" font-family="sans-serif" font-size="13" lengthAdjust="spacing" textLength="8.271" x="427.0754" y="212.7833">1</text><text fill="#000000" font-family="sans-serif" font-size="13" lengthAdjust="spacing" textLength="8.271" x="261.2373" y="765.8885">1</text></g><!--link HealthcareCenter to RecoveryRoom--><g class="link" data-entity-1="ent0009" data-entity-2="ent0011" data-link-type="association" data-source-line="76" id="lnk20"><path codeLine="76" d="M548.2095,138.3569 C696.8795,169.7869 962.0995,238.2369 962.0995,326.5669 C962.0995,326.5669 962.0995,326.5669 962.0995,1115.5069 C962.0995,1167.4669 952.3895,1228.4169 947.2395,1257.1369" fill="none" id="HealthcareCenter-RecoveryRoom" style="stroke:#181818;stroke-width:1;"/><polygon fill="#000000" points="968.7792,677.5727,968.5088,668.066,962.9725,670.0406,968.7792,677.5727" style="stroke:#000000;stroke-width:1;"/><text fill="#000000" font-family="sans-serif" font-size="13" lengthAdjust="spacing" textLength="22.9785" x="976.0995" y="677.3638">has</text><text fill="#000000" font-family="sans-serif" font-size="13" lengthAdjust="spacing" textLength="8.271" x="556.0379" y="152.5246">1</text><text fill="#000000" font-family="sans-serif" font-size="13" lengthAdjust="spacing" textLength="8.271" x="939.0178" y="1246.55">1</text></g><!--link HealthcareCenter to Employee--><g class="link" data-entity-1="ent0009" data-entity-2="ent0002" data-link-type="association" data-source-line="77" id="lnk21"><path codeLine="77" d="M541.0795,193.0769 C572.1195,218.1869 606.3395,245.8669 635.5295,269.4869" fill="none" id="HealthcareCenter-Employee" style="stroke:#181818;stroke-width:1;"/><polygon fill="#000000" points="601.9868,234.388,596.8032,226.4143,593.1063,230.984,601.9868,234.388" style="stroke:#000000;stroke-width:1;"/><text fill="#000000" font-family="sans-serif" font-size="13" lengthAdjust="spacing" textLength="54.9453" x="607.0995" y="235.7438">employs</text><text fill="#000000" font-family="sans-serif" font-size="13" lengthAdjust="spacing" textLength="8.271" x="541.1107" y="212.7178">1</text><text fill="#000000" font-family="sans-serif" font-size="13" lengthAdjust="spacing" textLength="23.0356" x="602.5289" y="258.5692">0..*</text></g><!--reverse link HealthcareCenter to Vaccine--><g class="link" data-entity-1="ent0009" data-entity-2="ent0017" data-link-type="aggregation" data-source-line="78" id="lnk22"><path codeLine="78" d="M340.03,125.1264 C211.46,136.9564 14.0995,177.9269 14.0995,326.5669 C14.0995,326.5669 14.0995,326.5669 14.0995,1115.5069 C14.0995,1193.7369 266.6195,1244.7369 385.9795,1264.4669" fill="none" id="HealthcareCenter-backto-Vaccine" style="stroke:#181818;stroke-width:1;"/><polygon fill="none" points="351.9795,124.0269,345.6383,120.5935,340.03,125.1264,346.3713,128.5598,351.9795,124.0269" style="stroke:#181818;stroke-width:1;"/><polygon fill="#000000" points="19.301,677.8592,21.8731,668.7031,16,668.9399,19.301,677.8592" style="stroke:#000000;stroke-width:1;"/><text fill="#000000" font-family="sans-serif" font-size="13" lengthAdjust="spacing" textLength="115.1528" x="28.0995" y="677.3638">manages stock of</text><text fill="#000000" font-family="sans-serif" font-size="13" lengthAdjust="spacing" textLength="8.271" x="335.8528" y="120.9431">1</text><text fill="#000000" font-family="sans-serif" font-size="13" lengthAdjust="spacing" textLength="23.0356" x="355.4924" y="1259.7132">0..*</text></g><!--link HealthcareCenter to VaccineType--><g class="link" data-entity-1="ent0009" data-entity-2="ent0018" data-link-type="association" data-source-line="79" id="lnk23"><path codeLine="79" d="M548.3195,132.5169 C719.1895,157.9469 1053.0995,221.1369 1053.0995,326.5669 C1053.0995,326.5669 1053.0995,326.5669 1053.0995,1275.6969 C1053.0995,1391.5369 891.6895,1435.1069 799.9595,1450.5269" fill="none" id="HealthcareCenter-VaccineType" style="stroke:#181818;stroke-width:1;"/><polygon fill="#000000" points="1059.0372,799.1046,1060.2277,789.6688,1054.4542,790.7711,1059.0372,799.1046" style="stroke:#000000;stroke-width:1;"/><text fill="#000000" font-family="sans-serif" font-size="13" lengthAdjust="spacing" textLength="132.958" x="1067.0995" y="798.6938">maintains catalog of</text><text fill="#000000" font-family="sans-serif" font-size="13" lengthAdjust="spacing" textLength="8.271" x="555.8364" y="130.0684">1</text><text fill="#000000" font-family="sans-serif" font-size="13" lengthAdjust="spacing" textLength="23.0356" x="807.5268" y="1445.9195">0..*</text></g><!--link HealthcareCenter to SNSUser--><g class="link" data-entity-1="ent0009" data-entity-2="ent0012" data-link-type="association" data-source-line="80" id="lnk24"><path codeLine="80" d="M449.0395,193.0469 C448.9395,278.2969 452.2295,422.7369 472.0995,545.0469 C481.7895,604.6569 499.7095,670.6669 514.4295,719.5969" fill="none" id="HealthcareCenter-SNSUser" style="stroke:#181818;stroke-width:1;"/><polygon fill="#000000" points="468.7157,468.6352,470.5176,459.2968,464.6845,460.0212,468.7157,468.6352" style="stroke:#000000;stroke-width:1;"/><text fill="#000000" font-family="sans-serif" font-size="13" lengthAdjust="spacing" textLength="109.459" x="477.0995" y="468.1738">keeps registry of</text><text fill="#000000" font-family="sans-serif" font-size="13" lengthAdjust="spacing" textLength="8.271" x="440.5858" y="212.685">1</text><text fill="#000000" font-family="sans-serif" font-size="13" lengthAdjust="spacing" textLength="23.0356" x="488.0787" y="708.8509">0..*</text></g><!--link HealthcareCenter to Appointment--><g class="link" data-entity-1="ent0009" data-entity-2="ent0013" data-link-type="association" data-source-line="81" id="lnk25"><path codeLine="81" d="M351.9095,146.9769 C270.1795,176.5569 167.0995,232.5069 167.0995,326.5669 C167.0995,326.5669 167.0995,326.5669 167.0995,795.1269 C167.0995,906.3269 322.5695,952.8369 404.2595,969.5969" fill="none" id="HealthcareCenter-Appointment" style="stroke:#181818;stroke-width:1;"/><polygon fill="#000000" points="172.4171,532.9632,174.7756,523.7497,168.9096,524.123,172.4171,532.9632" style="stroke:#000000;stroke-width:1;"/><text fill="#000000" font-family="sans-serif" font-size="13" lengthAdjust="spacing" textLength="138.9121" x="181.0995" y="532.4738">manages schedule of</text><text fill="#000000" font-family="sans-serif" font-size="13" lengthAdjust="spacing" textLength="8.271" x="336.0962" y="145.6561">1</text><text fill="#000000" font-family="sans-serif" font-size="13" lengthAdjust="spacing" textLength="23.0356" x="373.5307" y="964.537">0..*</text></g><!--link CenterAdministrator to VaccineType--><g class="link" data-entity-1="ent0003" data-entity-2="ent0018" data-link-type="association" data-source-line="83" id="lnk26"><path codeLine="83" d="M849.6295,545.5369 C844.3995,572.0969 835.0995,625.7869 835.0995,671.7969 C835.0995,671.7969 835.0995,671.7969 835.0995,1275.6969 C835.0995,1325.2369 806.9095,1374.4369 780.9295,1409.2669" fill="none" id="CenterAdministrator-VaccineType" style="stroke:#181818;stroke-width:1;"/><polygon fill="#000000" points="839.7031,983.8175,843.3499,975.034,837.4906,974.5679,839.7031,983.8175" style="stroke:#000000;stroke-width:1;"/><text fill="#000000" font-family="sans-serif" font-size="13" lengthAdjust="spacing" textLength="59.8584" x="849.0995" y="983.3338">manages</text><text fill="#000000" font-family="sans-serif" font-size="13" lengthAdjust="spacing" textLength="8.271" x="839.4746" y="565.0057">1</text><text fill="#000000" font-family="sans-serif" font-size="13" lengthAdjust="spacing" textLength="23.0356" x="762.1422" y="1398.6078">0..*</text></g><!--link Receptionist to SNSUser--><g class="link" data-entity-1="ent0007" data-entity-2="ent0012" data-link-type="association" data-source-line="85" id="lnk27"><path codeLine="85" d="M641.0795,481.2169 C623.3895,501.7269 594.4795,538.4069 579.0995,575.0469 C559.8295,620.9669 549.5695,676.1069 544.1295,719.4569" fill="none" id="Receptionist-SNSUser" style="stroke:#181818;stroke-width:1;"/><polygon fill="#000000" points="582.2149,605.0445,588.3464,597.7743,582.9021,595.5588,582.2149,605.0445" style="stroke:#000000;stroke-width:1;"/><text fill="#000000" font-family="sans-serif" font-size="13" lengthAdjust="spacing" textLength="57.1924" x="593.0995" y="604.9138">registers</text><text fill="#000000" font-family="sans-serif" font-size="13" lengthAdjust="spacing" textLength="8.271" x="627.531" y="500.6798">1</text><text fill="#000000" font-family="sans-serif" font-size="13" lengthAdjust="spacing" textLength="23.0356" x="520.6265" y="708.9542">0..*</text></g><!--link Receptionist to Appointment--><g class="link" data-entity-1="ent0007" data-entity-2="ent0013" data-link-type="association" data-source-line="86" id="lnk28"><path codeLine="86" d="M656.4795,481.0769 C657.0395,510.2469 657.7595,572.8669 655.0995,625.6469 C649.6495,733.8469 672.3595,767.7369 632.0995,868.3169 C610.6495,921.9169 547.1395,951.0969 501.8795,965.5569" fill="none" id="Receptionist-Appointment" style="stroke:#181818;stroke-width:1;"/><polygon fill="#000000" points="657.5795,677.6266,663.1291,669.9031,657.5294,668.1162,657.5795,677.6266" style="stroke:#000000;stroke-width:1;"/><text fill="#000000" font-family="sans-serif" font-size="13" lengthAdjust="spacing" textLength="65.0317" x="668.0995" y="677.3638">schedules</text><text fill="#000000" font-family="sans-serif" font-size="13" lengthAdjust="spacing" textLength="8.271" x="647.4111" y="500.8116">1</text><text fill="#000000" font-family="sans-serif" font-size="13" lengthAdjust="spacing" textLength="23.0356" x="509.6051" y="976.9013">0..*</text></g><!--link SNSUser to Appointment--><g class="link" data-entity-1="ent0012" data-entity-2="ent0013" data-link-type="association" data-source-line="87" id="lnk29"><path codeLine="87" d="M465.3595,868.6969 C459.1995,878.0969 453.8895,888.0469 450.0995,898.3169 C444.6595,913.0769 444.6595,930.4469 446.3295,945.1769" fill="none" id="SNSUser-Appointment" style="stroke:#181818;stroke-width:1;"/><polygon fill="#000000" points="453.8922,911.7353,458.9282,903.6675,453.2243,902.2483,453.8922,911.7353" style="stroke:#000000;stroke-width:1;"/><text fill="#000000" font-family="sans-serif" font-size="13" lengthAdjust="spacing" textLength="65.0317" x="464.0995" y="911.3838">schedules</text><text fill="#000000" font-family="sans-serif" font-size="13" lengthAdjust="spacing" textLength="8.271" x="450.2972" y="888.335">1</text><text fill="#000000" font-family="sans-serif" font-size="13" lengthAdjust="spacing" textLength="23.0356" x="419.736" y="934.1682">0..*</text></g><!--link Appointment to SNSUser--><g class="link" data-entity-1="ent0013" data-entity-2="ent0012" data-link-type="association" data-source-line="89" id="lnk30"><path codeLine="89" d="M501.9095,950.9869 C514.6395,941.4769 526.8095,929.5369 534.0995,915.3169 C541.3895,901.1069 544.6695,884.6569 545.6995,868.5669" fill="none" id="Appointment-SNSUser" style="stroke:#181818;stroke-width:1;"/><polygon fill="#000000" points="547.4455,902.4678,540.6063,909.0766,545.797,911.8344,547.4455,902.4678" style="stroke:#000000;stroke-width:1;"/><text fill="#000000" font-family="sans-serif" font-size="13" lengthAdjust="spacing" textLength="32.3921" x="554.0995" y="911.3838">is for</text><text fill="#000000" font-family="sans-serif" font-size="13" lengthAdjust="spacing" textLength="23.0356" x="509.639" y="943.5426">0..*</text><text fill="#000000" font-family="sans-serif" font-size="13" lengthAdjust="spacing" textLength="8.271" x="538.0552" y="888.4493">1</text></g><!--link Appointment to VaccineType--><g class="link" data-entity-1="ent0013" data-entity-2="ent0018" data-link-type="association" data-source-line="90" id="lnk31"><path codeLine="90" d="M429.4095,1012.5369 C384.4495,1079.1169 297.3695,1232.3569 369.0995,1332.5869 C439.4095,1430.8269 591.0695,1453.1969 676.4495,1457.7369" fill="none" id="Appointment-VaccineType" style="stroke:#181818;stroke-width:1;"/><polygon fill="#000000" points="359.5256,1182.7353,357.7067,1173.4003,352.5671,1176.2522,359.5256,1182.7353" style="stroke:#000000;stroke-width:1;"/><text fill="#000000" font-family="sans-serif" font-size="13" lengthAdjust="spacing" textLength="55.2183" x="366.0995" y="1182.8638">refers to</text><text fill="#000000" font-family="sans-serif" font-size="13" lengthAdjust="spacing" textLength="23.0356" x="399.9246" y="1032.226">0..*</text><text fill="#000000" font-family="sans-serif" font-size="13" lengthAdjust="spacing" textLength="8.271" x="660.4652" y="1453.7038">1</text></g><!--link Receptionist to Arrival--><g class="link" data-entity-1="ent0007" data-entity-2="ent0014" data-link-type="association" data-source-line="92" id="lnk32"><path codeLine="92" d="M609.3595,475.5169 C578.9295,483.4269 538.7795,495.4169 505.0995,510.7569 C466.0895,528.5169 424.8895,555.2169 396.9795,574.6669" fill="none" id="Receptionist-Arrival" style="stroke:#181818;stroke-width:1;"/><polygon fill="#000000" points="505.569,530.0884,515.0081,528.9251,512.5216,523.5991,505.569,530.0884" style="stroke:#000000;stroke-width:1;"/><text fill="#000000" font-family="sans-serif" font-size="13" lengthAdjust="spacing" textLength="57.1924" x="519.0995" y="532.4738">registers</text><text fill="#000000" font-family="sans-serif" font-size="13" lengthAdjust="spacing" textLength="8.271" x="593.2938" y="473.2974">1</text><text fill="#000000" font-family="sans-serif" font-size="13" lengthAdjust="spacing" textLength="23.0356" x="379.1592" y="564.077">0..*</text></g><!--link Arrival to SNSUser--><g class="link" data-entity-1="ent0014" data-entity-2="ent0012" data-link-type="association" data-source-line="93" id="lnk33"><path codeLine="93" d="M386.5595,626.1169 C395.2595,635.3469 405.1695,645.9369 414.0995,655.6469 C433.1495,676.3369 453.6595,698.9469 472.4095,719.7469" fill="none" id="Arrival-SNSUser" style="stroke:#181818;stroke-width:1;"/><polygon fill="#000000" points="453.4786,676.5486,449.532,667.8956,445.1996,671.868,453.4786,676.5486" style="stroke:#000000;stroke-width:1;"/><text fill="#000000" font-family="sans-serif" font-size="13" lengthAdjust="spacing" textLength="12.5303" x="459.0995" y="677.3638">of</text><text fill="#000000" font-family="sans-serif" font-size="13" lengthAdjust="spacing" textLength="8.271" x="383.0912" y="645.8935">1</text><text fill="#000000" font-family="sans-serif" font-size="13" lengthAdjust="spacing" textLength="8.271" x="457.5623" y="708.7595">1</text></g><!--link Arrival to Appointment--><g class="link" data-entity-1="ent0014" data-entity-2="ent0013" data-link-type="association" data-source-line="94" id="lnk34"><path codeLine="94" d="M367.6295,625.9469 C369.3495,635.2469 371.3195,645.9369 373.0995,655.6469 C390.4695,750.1569 386.4795,775.6969 412.0995,868.3169 C419.3995,894.7169 430.4095,923.7069 439.1695,945.2169" fill="none" id="Arrival-Appointment" style="stroke:#181818;stroke-width:1;"/><polygon fill="#000000" points="418.1928,799.0723,419.0829,789.6035,413.3473,790.8887,418.1928,799.0723" style="stroke:#000000;stroke-width:1;"/><text fill="#000000" font-family="sans-serif" font-size="13" lengthAdjust="spacing" textLength="17.875" x="426.0995" y="798.6938">for</text><text fill="#000000" font-family="sans-serif" font-size="13" lengthAdjust="spacing" textLength="8.271" x="359.7836" y="645.6842">1</text><text fill="#000000" font-family="sans-serif" font-size="13" lengthAdjust="spacing" textLength="8.271" x="437.2411" y="934.216">1</text></g><!--link Arrival to WaitingRoom--><g class="link" data-entity-1="ent0014" data-entity-2="ent0010" data-link-type="association" data-source-line="95" id="lnk35"><path codeLine="95" d="M318.9795,625.9869 C308.2295,634.0669 297.8795,644.0069 291.0995,655.6469 C268.5595,694.3369 269.2695,749.3769 271.3495,776.5869" fill="none" id="Arrival-WaitingRoom" style="stroke:#181818;stroke-width:1;"/><polygon fill="#000000" points="294.5918,677.6305,300.1214,669.8927,294.5172,668.1203,294.5918,677.6305" style="stroke:#000000;stroke-width:1;"/><text fill="#000000" font-family="sans-serif" font-size="13" lengthAdjust="spacing" textLength="63.4829" x="305.0995" y="677.3638">queues in</text><text fill="#000000" font-family="sans-serif" font-size="13" lengthAdjust="spacing" textLength="23.0356" x="283.8167" y="645.3184">0..*</text><text fill="#000000" font-family="sans-serif" font-size="13" lengthAdjust="spacing" textLength="8.271" x="272.0791" y="766.0061">1</text></g><!--link Nurse to VaccinationProcess--><g class="link" data-entity-1="ent0005" data-entity-2="ent0016" data-link-type="association" data-source-line="97" id="lnk36"><path codeLine="97" d="M772.0695,690.4169 C759.9595,729.9169 727.7295,832.3069 694.0995,915.3169 C668.2695,979.0769 632.4795,1051.7469 613.7195,1088.8569" fill="none" id="Nurse-VaccinationProcess" style="stroke:#181818;stroke-width:1;"/><polygon fill="#000000" points="702.2529,911.5298,708.3246,904.2096,702.8624,902.0388,702.2529,911.5298" style="stroke:#000000;stroke-width:1;"/><text fill="#000000" font-family="sans-serif" font-size="13" lengthAdjust="spacing" textLength="58.9443" x="713.0995" y="911.3838">executes</text><text fill="#000000" font-family="sans-serif" font-size="13" lengthAdjust="spacing" textLength="8.271" x="761.4555" y="709.8827">1</text><text fill="#000000" font-family="sans-serif" font-size="13" lengthAdjust="spacing" textLength="23.0356" x="590.9836" y="1078.2739">0..*</text></g><!--link Appointment to VaccinationProcess--><g class="link" data-entity-1="ent0013" data-entity-2="ent0016" data-link-type="association" data-source-line="98" id="lnk37"><path codeLine="98" d="M489.2995,1012.4769 C515.4895,1036.1469 550.3095,1067.6069 574.0895,1089.0969" fill="none" id="Appointment-VaccinationProcess" style="stroke:#181818;stroke-width:1;"/><polygon fill="#000000" points="548.8093,1054.1256,544.0687,1045.8807,540.1279,1050.2418,548.8093,1054.1256" style="stroke:#000000;stroke-width:1;"/><text fill="#000000" font-family="sans-serif" font-size="13" lengthAdjust="spacing" textLength="59.8203" x="554.0995" y="1055.2738">results in</text><text fill="#000000" font-family="sans-serif" font-size="13" lengthAdjust="spacing" textLength="8.271" x="487.2613" y="1032.155">1</text><text fill="#000000" font-family="sans-serif" font-size="13" lengthAdjust="spacing" textLength="8.271" x="558.5649" y="1078.1589">1</text></g><!--link VaccinationProcess to Vaccine--><g class="link" data-entity-1="ent0016" data-entity-2="ent0017" data-link-type="association" data-source-line="99" id="lnk38"><path codeLine="99" d="M530.2095,1133.2769 C509.9695,1141.4369 489.5195,1153.1469 475.0995,1169.7969 C463.8495,1182.7969 457.0695,1199.8669 452.9995,1216.4069" fill="none" id="VaccinationProcess-Vaccine" style="stroke:#181818;stroke-width:1;"/><polygon fill="#000000" points="476.6969,1182.0269,485.0058,1177.3994,480.699,1173.3993,476.6969,1182.0269" style="stroke:#000000;stroke-width:1;"/><text fill="#000000" font-family="sans-serif" font-size="13" lengthAdjust="spacing" textLength="99.563" x="489.0995" y="1182.8638">uses dose from</text><text fill="#000000" font-family="sans-serif" font-size="13" lengthAdjust="spacing" textLength="8.271" x="514.0337" y="1131.584">1</text><text fill="#000000" font-family="sans-serif" font-size="13" lengthAdjust="spacing" textLength="8.271" x="445.2349" y="1205.8756">1</text></g><!--link VaccinationProcess to AdverseReaction--><g class="link" data-entity-1="ent0016" data-entity-2="ent0015" data-link-type="association" data-source-line="101" id="lnk39"><path codeLine="101" d="M599.4495,1140.0869 C598.9095,1149.3969 598.3695,1160.0769 598.0995,1169.7969 C597.3495,1196.9069 599.8795,1227.9169 602.1095,1248.9469" fill="none" id="VaccinationProcess-AdverseReaction" style="stroke:#181818;stroke-width:1;"/><polygon fill="#000000" points="603.2217,1183.3618,605.9388,1174.2476,600.0627,1174.3912,603.2217,1183.3618" style="stroke:#000000;stroke-width:1;"/><text fill="#000000" font-family="sans-serif" font-size="13" lengthAdjust="spacing" textLength="50.6733" x="612.0995" y="1182.8638">triggers</text><text fill="#000000" font-family="sans-serif" font-size="13" lengthAdjust="spacing" textLength="8.271" x="590.1752" y="1159.8196">1</text><text fill="#000000" font-family="sans-serif" font-size="13" lengthAdjust="spacing" textLength="24.8066" x="574.7364" y="1238.3408">0..1</text></g><!--link VaccinationProcess to RecoveryRoom--><g class="link" data-entity-1="ent0016" data-entity-2="ent0011" data-link-type="association" data-source-line="102" id="lnk40"><path codeLine="102" d="M654.6895,1140.2169 C725.3495,1172.8069 847.7595,1229.2569 908.1995,1257.1369" fill="none" id="VaccinationProcess-RecoveryRoom" style="stroke:#181818;stroke-width:1;"/><polygon fill="#000000" points="760.6399,1180.4573,753.6572,1174.0004,751.1955,1179.3379,760.6399,1180.4573" style="stroke:#000000;stroke-width:1;"/><text fill="#000000" font-family="sans-serif" font-size="13" lengthAdjust="spacing" textLength="91.0762" x="765.0995" y="1182.8638">routes user to</text><text fill="#000000" font-family="sans-serif" font-size="13" lengthAdjust="spacing" textLength="23.0356" x="641.4279" y="1159.9797">0..*</text><text fill="#000000" font-family="sans-serif" font-size="13" lengthAdjust="spacing" textLength="8.271" x="888.0218" y="1246.55">1</text></g><!--link Vaccine to VaccineType--><g class="link" data-entity-1="ent0017" data-entity-2="ent0018" data-link-type="association" data-source-line="104" id="lnk41"><path codeLine="104" d="M508.0195,1320.9869 C513.7395,1324.9769 519.4995,1328.8969 525.0995,1332.5869 C574.9695,1365.3769 633.4795,1399.6369 676.5495,1424.0869" fill="none" id="Vaccine-VaccineType" style="stroke:#181818;stroke-width:1;"/><polygon fill="#000000" points="608.3647,1373.7625,602.1826,1366.5353,599.1153,1371.5493,608.3647,1373.7625" style="stroke:#000000;stroke-width:1;"/><text fill="#000000" font-family="sans-serif" font-size="13" lengthAdjust="spacing" textLength="27.0474" x="613.0995" y="1375.6538">is of</text><text fill="#000000" font-family="sans-serif" font-size="13" lengthAdjust="spacing" textLength="23.0356" x="515.9424" y="1322.3047">0..*</text><text fill="#000000" font-family="sans-serif" font-size="13" lengthAdjust="spacing" textLength="8.271" x="660.5774" y="1415.9527">1</text></g><?plantuml-src dLRRQXin47tVhn1vAHGSabS_14mIIA1nWvsspsDfx1NPrMmaRR1R-kyTxMgp5w_NeGPZNUPopj5ePAzzXkAESj16F972JCp44wedCB13cxXNRGgma0kPWNCBxwtUb1uV9Pcr_etYAacrGY6rbHdMunnzIiebdWhXIMp8Uyg5qXQbrsIIf0ebxlCYemEY-9C8_io4WHpZ49Iow5oS5IcPPWSPQHR7Kdk6O6x1gcMPRnZktoRuBHgFTg5oRRJp5ZnPWNkFHhM9e-coj0vFRQvGOX5GSvHZcsZqW93vL8B5Ekt_Cw82ZJQx1s9C3ScCt63f7QJK1jqpsh1y2mMm58UM_IzWPSnkHPItFEWTxQ5QYclhvVg7ww1rnaKPpw3VQEjJ1Hv7s3ZSdp-THL6GDZvdjJwoXtWl-YEZy-1Brt6nLhz3zc4EzRpoQ8qKStIuGgWghOsDJbfTdMDh_BDI4SBYioN9z8wn38n7QtLZmQWupiZt9CHzeMsLugwLwwq4utld5QE_78esW-JBsC3H3i4rCuyoDPJHxX0NR3nRBWTDAaJz8cQpcLZTVrkyF7vVhiCiEIhIY-iBtgX-ElKYvY859sucxRlLTDxXwlBowqLxtUTSyM5uqeTQfqRskSYhXkIuBaY-2jgUJzWLDVXpmV7N2GaUMBrFnMYko5oy8XQEfTw5TdBub7EtoZi4P8ggvAPRXKZ66jKqZpeCk_PwqodSDMA-5UmnuT37sc0CJasepzedtQre7SkcHQMTs3BHcmdZFcsBsy21dvDfuasRw1DlLZibt6Afpc74eaynmctCUb3xr-Ujn9ALuFUKeTQFozY1zXeFtuazIdvNtL2Jwu4W0pVkocNcOxOHYoF_86RfE8yY1hQr39bXJdWovY36eBFE1VyHsErgUSUyUm8D-eMbYcaPzAzFjC4sLG9SC-6e_W40?></g></svg>