<svg xmlns="http://www.w3.org/2000/svg" xmlns:xlink="http://www.w3.org/1999/xlink" contentStyleType="text/css" data-diagram-type="CLASS" height="1627px" preserveAspectRatio="none" style="width:870px;height:1627px;background:#FFFFFF;" version="1.1" viewBox="0 0 870 1627" width="870px" zoomAndPan="magnify"><?plantuml 1.2026.3beta6?><defs/><g><g class="title" data-source-line="1"><text fill="#000000" font-family="sans-serif" font-size="14" font-weight="700" lengthAdjust="spacing" textLength="231" x="316.1892" y="22.9951">Domain Model - MedManager</text></g><!--class Employee--><g class="entity" data-qualified-name="Employee" data-source-line="7" id="ent0002"><rect fill="#F1F1F1" height="132.0781" rx="2.5" ry="2.5" style="stroke:#181818;stroke-width:0.5;" width="152.0889" x="99.46" y="397.2569"/><text fill="#000000" font-family="sans-serif" font-size="14" lengthAdjust="spacing" textLength="69.3369" x="140.836" y="415.252">Employee</text><line style="stroke:#181818;stroke-width:0.5;" x1="100.46" x2="250.5489" y1="423.5538" y2="423.5538"/><text fill="#000000" font-family="sans-serif" font-size="14" lengthAdjust="spacing" textLength="17.8281" x="105.46" y="440.5489">-id</text><text fill="#000000" font-family="sans-serif" font-size="14" lengthAdjust="spacing" textLength="44.7549" x="105.46" y="456.8457">-name</text><text fill="#000000" font-family="sans-serif" font-size="14" lengthAdjust="spacing" textLength="60.3613" x="105.46" y="473.1426">-address</text><text fill="#000000" font-family="sans-serif" font-size="14" lengthAdjust="spacing" textLength="48.8633" x="105.46" y="489.4395">-phone</text><text fill="#000000" font-family="sans-serif" font-size="14" lengthAdjust="spacing" textLength="43.6611" x="105.46" y="505.7364">-email</text><text fill="#000000" font-family="sans-serif" font-size="14" lengthAdjust="spacing" textLength="140.0889" x="105.46" y="522.0332">-citizenCardNumber</text></g><!--class CenterAdministrator--><g class="entity" data-qualified-name="CenterAdministrator" data-source-line="16" id="ent0003"><rect fill="#F1F1F1" height="34.2969" rx="2.5" ry="2.5" style="stroke:#181818;stroke-width:0.5;" width="148.8027" x="72.1" y="623.6369"/><text fill="#000000" font-family="sans-serif" font-size="14" lengthAdjust="spacing" textLength="142.8027" x="75.1" y="641.632">CenterAdministrator</text><line style="stroke:#181818;stroke-width:0.5;" x1="73.1" x2="219.9027" y1="649.9338" y2="649.9338"/></g><!--class Nurse--><g class="entity" data-qualified-name="Nurse" data-source-line="19" id="ent0005"><rect fill="#F1F1F1" height="34.2969" rx="2.5" ry="2.5" style="stroke:#181818;stroke-width:0.5;" width="47.0088" x="7" y="687.9369"/><text fill="#000000" font-family="sans-serif" font-size="14" lengthAdjust="spacing" textLength="41.0088" x="10" y="705.932">Nurse</text><line style="stroke:#181818;stroke-width:0.5;" x1="8" x2="53.0088" y1="714.2338" y2="714.2338"/></g><!--class Receptionist--><g class="entity" data-qualified-name="Receptionist" data-source-line="22" id="ent0007"><rect fill="#F1F1F1" height="34.2969" rx="2.5" ry="2.5" style="stroke:#181818;stroke-width:0.5;" width="93.0283" x="255.99" y="623.6369"/><text fill="#000000" font-family="sans-serif" font-size="14" lengthAdjust="spacing" textLength="87.0283" x="258.99" y="641.632">Receptionist</text><line style="stroke:#181818;stroke-width:0.5;" x1="256.99" x2="348.0183" y1="649.9338" y2="649.9338"/></g><!--class HealthcareCenter--><g class="entity" data-qualified-name="HealthcareCenter" data-source-line="25" id="ent0009"><rect fill="#F1F1F1" height="164.6719" rx="2.5" ry="2.5" style="stroke:#181818;stroke-width:0.5;" width="195.6953" x="409.66" y="44.2969"/><text fill="#000000" font-family="sans-serif" font-size="14" lengthAdjust="spacing" textLength="123.7373" x="445.639" y="62.292">HealthcareCenter</text><line style="stroke:#181818;stroke-width:0.5;" x1="410.66" x2="604.3553" y1="70.5938" y2="70.5938"/><text fill="#000000" font-family="sans-serif" font-size="14" lengthAdjust="spacing" textLength="44.7549" x="415.66" y="87.5889">-name</text><text fill="#000000" font-family="sans-serif" font-size="14" lengthAdjust="spacing" textLength="60.3613" x="415.66" y="103.8857">-address</text><text fill="#000000" font-family="sans-serif" font-size="14" lengthAdjust="spacing" textLength="48.8633" x="415.66" y="120.1826">-phone</text><text fill="#000000" font-family="sans-serif" font-size="14" lengthAdjust="spacing" textLength="43.6611" x="415.66" y="136.4795">-email</text><text fill="#000000" font-family="sans-serif" font-size="14" lengthAdjust="spacing" textLength="59.2881" x="415.66" y="152.7764">-website</text><text fill="#000000" font-family="sans-serif" font-size="14" lengthAdjust="spacing" textLength="102.6553" x="415.66" y="169.0732">-openingHours</text><text fill="#000000" font-family="sans-serif" font-size="14" lengthAdjust="spacing" textLength="95.1631" x="415.66" y="185.3701">-closingHours</text><text fill="#000000" font-family="sans-serif" font-size="14" lengthAdjust="spacing" textLength="183.6953" x="415.66" y="201.667">-vaccinesPerHourCapacity</text></g><!--class WaitingRoom--><g class="entity" data-qualified-name="WaitingRoom" data-source-line="36" id="ent0010"><rect fill="#F1F1F1" height="34.2969" rx="2.5" ry="2.5" style="stroke:#181818;stroke-width:0.5;" width="99.9463" x="457.53" y="332.9669"/><text fill="#000000" font-family="sans-serif" font-size="14" lengthAdjust="spacing" textLength="93.9463" x="460.53" y="350.962">WaitingRoom</text><line style="stroke:#181818;stroke-width:0.5;" x1="458.53" x2="556.4763" y1="359.2638" y2="359.2638"/></g><!--class RecoveryRoom--><g class="entity" data-qualified-name="RecoveryRoom" data-source-line="39" id="ent0011"><rect fill="#F1F1F1" height="34.2969" rx="2.5" ry="2.5" style="stroke:#181818;stroke-width:0.5;" width="112.0391" x="359.48" y="559.3369"/><text fill="#000000" font-family="sans-serif" font-size="14" lengthAdjust="spacing" textLength="106.0391" x="362.48" y="577.332">RecoveryRoom</text><line style="stroke:#181818;stroke-width:0.5;" x1="360.48" x2="470.5191" y1="585.6338" y2="585.6338"/></g><!--class SNSUser--><g class="entity" data-qualified-name="SNSUser" data-source-line="42" id="ent0012"><rect fill="#F1F1F1" height="99.4844" rx="2.5" ry="2.5" style="stroke:#181818;stroke-width:0.5;" width="152.0889" x="323.46" y="846.2269"/><text fill="#000000" font-family="sans-serif" font-size="14" lengthAdjust="spacing" textLength="60.1563" x="369.4263" y="864.222">SNSUser</text><line style="stroke:#181818;stroke-width:0.5;" x1="324.46" x2="474.5489" y1="872.5238" y2="872.5238"/><text fill="#000000" font-family="sans-serif" font-size="14" lengthAdjust="spacing" textLength="84.752" x="329.46" y="889.5189">-snsNumber</text><text fill="#000000" font-family="sans-serif" font-size="14" lengthAdjust="spacing" textLength="140.0889" x="329.46" y="905.8157">-citizenCardNumber</text><text fill="#000000" font-family="sans-serif" font-size="14" lengthAdjust="spacing" textLength="44.7549" x="329.46" y="922.1126">-name</text><text fill="#000000" font-family="sans-serif" font-size="14" lengthAdjust="spacing" textLength="69.5146" x="329.46" y="938.4095">-birthdate</text></g><!--class Appointment--><g class="entity" data-qualified-name="Appointment" data-source-line="49" id="ent0013"><rect fill="#F1F1F1" height="66.8906" rx="2.5" ry="2.5" style="stroke:#181818;stroke-width:0.5;" width="96.7813" x="224.11" y="1092.8669"/><text fill="#000000" font-family="sans-serif" font-size="14" lengthAdjust="spacing" textLength="90.7813" x="227.11" y="1110.862">Appointment</text><line style="stroke:#181818;stroke-width:0.5;" x1="225.11" x2="319.8913" y1="1119.1638" y2="1119.1638"/><text fill="#000000" font-family="sans-serif" font-size="14" lengthAdjust="spacing" textLength="71.3125" x="230.11" y="1136.1589">-dateTime</text><text fill="#000000" font-family="sans-serif" font-size="14" lengthAdjust="spacing" textLength="48.0703" x="230.11" y="1152.4557">-status</text></g><!--class AdverseReaction--><g class="entity" data-qualified-name="AdverseReaction" data-source-line="54" id="ent0014"><rect fill="#F1F1F1" height="66.8906" rx="2.5" ry="2.5" style="stroke:#181818;stroke-width:0.5;" width="124.46" x="210.27" y="1545.3869"/><text fill="#000000" font-family="sans-serif" font-size="14" lengthAdjust="spacing" textLength="118.46" x="213.27" y="1563.382">AdverseReaction</text><line style="stroke:#181818;stroke-width:0.5;" x1="211.27" x2="333.73" y1="1571.6838" y2="1571.6838"/><text fill="#000000" font-family="sans-serif" font-size="14" lengthAdjust="spacing" textLength="71.3125" x="216.27" y="1588.6789">-dateTime</text><text fill="#000000" font-family="sans-serif" font-size="14" lengthAdjust="spacing" textLength="82.8926" x="216.27" y="1604.9757">-description</text></g><!--class VaccinationProcess--><g class="entity" data-qualified-name="VaccinationProcess" data-source-line="59" id="ent0015"><rect fill="#F1F1F1" height="66.8906" rx="2.5" ry="2.5" style="stroke:#181818;stroke-width:0.5;" width="141.3721" x="201.82" y="1323.1969"/><text fill="#000000" font-family="sans-serif" font-size="14" lengthAdjust="spacing" textLength="135.3721" x="204.82" y="1341.192">VaccinationProcess</text><line style="stroke:#181818;stroke-width:0.5;" x1="202.82" x2="342.1921" y1="1349.4938" y2="1349.4938"/><text fill="#000000" font-family="sans-serif" font-size="14" lengthAdjust="spacing" textLength="71.3125" x="207.82" y="1366.4889">-dateTime</text><text fill="#000000" font-family="sans-serif" font-size="14" lengthAdjust="spacing" textLength="79.2354" x="207.82" y="1382.7857">-lotNumber</text></g><!--class Vaccine--><g class="entity" data-qualified-name="Vaccine" data-source-line="64" id="ent0016"><rect fill="#F1F1F1" height="99.4844" rx="2.5" ry="2.5" style="stroke:#181818;stroke-width:0.5;" width="140.3174" x="560.35" y="1306.9069"/><text fill="#000000" font-family="sans-serif" font-size="14" lengthAdjust="spacing" textLength="54.9268" x="603.0453" y="1324.902">Vaccine</text><line style="stroke:#181818;stroke-width:0.5;" x1="561.35" x2="699.6674" y1="1333.2038" y2="1333.2038"/><text fill="#000000" font-family="sans-serif" font-size="14" lengthAdjust="spacing" textLength="128.3174" x="566.35" y="1350.1989">-commercialName</text><text fill="#000000" font-family="sans-serif" font-size="14" lengthAdjust="spacing" textLength="46.0332" x="566.35" y="1366.4957">-brand</text><text fill="#000000" font-family="sans-serif" font-size="14" lengthAdjust="spacing" textLength="82.79" x="566.35" y="1382.7926">-technology</text><text fill="#000000" font-family="sans-serif" font-size="14" lengthAdjust="spacing" textLength="109.3408" x="566.35" y="1399.0895">-expirationDate</text></g><!--class VaccineType--><g class="entity" data-qualified-name="VaccineType" data-source-line="71" id="ent0017"><rect fill="#F1F1F1" height="83.1875" rx="2.5" ry="2.5" style="stroke:#181818;stroke-width:0.5;" width="95.2637" x="720.87" y="1084.7169"/><text fill="#000000" font-family="sans-serif" font-size="14" lengthAdjust="spacing" textLength="89.2637" x="723.87" y="1102.712">VaccineType</text><line style="stroke:#181818;stroke-width:0.5;" x1="721.87" x2="815.1337" y1="1111.0138" y2="1111.0138"/><text fill="#000000" font-family="sans-serif" font-size="14" lengthAdjust="spacing" textLength="38.8145" x="726.87" y="1128.0089">-code</text><text fill="#000000" font-family="sans-serif" font-size="14" lengthAdjust="spacing" textLength="58.2217" x="726.87" y="1144.3057">-disease</text><text fill="#000000" font-family="sans-serif" font-size="14" lengthAdjust="spacing" textLength="82.8926" x="726.87" y="1160.6026">-description</text></g><!--reverse link Employee to CenterAdministrator--><g class="link" data-entity-1="ent0002" data-entity-2="ent0003" data-link-type="extension" id="lnk4"><path d="M161.7705,547.4052 C156.1905,581.1152 152.78,601.8069 149.25,623.1869" fill="none" id="Employee-backto-CenterAdministrator" style="stroke:#181818;stroke-width:1;"/><polygon fill="none" points="164.71,529.6469,155.851,546.4254,167.6899,548.3851,164.71,529.6469" style="stroke:#181818;stroke-width:1;"/></g><!--reverse link Employee to Nurse--><g class="link" data-entity-1="ent0002" data-entity-2="ent0005" data-link-type="extension" id="lnk6"><path d="M106.0707,543.7446 C83.9507,571.2546 71.33,590.4969 54.5,623.6369 C43.88,644.5569 37.13,670.9869 33.58,687.7169" fill="none" id="Employee-backto-Nurse" style="stroke:#181818;stroke-width:1;"/><polygon fill="none" points="117.35,529.7169,101.3948,539.9848,110.7466,547.5044,117.35,529.7169" style="stroke:#181818;stroke-width:1;"/></g><!--reverse link Employee to Receptionist--><g class="link" data-entity-1="ent0002" data-entity-2="ent0007" data-link-type="extension" id="lnk8"><path d="M233.347,544.226 C257.757,577.936 275.02,601.8069 290.5,623.1869" fill="none" id="Employee-backto-Receptionist" style="stroke:#181818;stroke-width:1;"/><polygon fill="none" points="222.79,529.6469,228.4873,547.745,238.2067,540.707,222.79,529.6469" style="stroke:#181818;stroke-width:1;"/></g><!--reverse link HealthcareCenter to WaitingRoom--><g class="link" data-entity-1="ent0009" data-entity-2="ent0010" data-link-type="composition" data-source-line="79" id="lnk18"><path codeLine="79" d="M507.5,221.1569 C507.5,266.2969 507.5,306.4169 507.5,332.4769" fill="none" id="HealthcareCenter-backto-WaitingRoom" style="stroke:#181818;stroke-width:1;"/><polygon fill="#181818" points="507.5,209.1569,503.5,215.1569,507.5,221.1569,511.5,215.1569,507.5,209.1569" style="stroke:#181818;stroke-width:1;"/><polygon fill="#000000" points="512.5,252.5333,515.4389,243.4882,509.5611,243.4882,512.5,252.5333" style="stroke:#000000;stroke-width:1;"/><text fill="#000000" font-family="sans-serif" font-size="13" lengthAdjust="spacing" textLength="22.9785" x="521.5" y="252.0338">has</text><text fill="#000000" font-family="sans-serif" font-size="13" lengthAdjust="spacing" textLength="8.271" x="499.1672" y="228.9659">1</text><text fill="#000000" font-family="sans-serif" font-size="13" lengthAdjust="spacing" textLength="8.271" x="498.3155" y="321.8655">1</text></g><!--reverse link HealthcareCenter to RecoveryRoom--><g class="link" data-entity-1="ent0009" data-entity-2="ent0011" data-link-type="composition" data-source-line="80" id="lnk19"><path codeLine="80" d="M472.413,220.7857 C459.423,257.9757 449.3,291.5169 440.5,332.9669 C422.72,416.8169 417.43,519.7569 415.99,559.1269" fill="none" id="HealthcareCenter-backto-RecoveryRoom" style="stroke:#181818;stroke-width:1;"/><polygon fill="#181818" points="476.37,209.4569,470.6152,213.8023,472.413,220.7857,478.1678,216.4403,476.37,209.4569" style="stroke:#181818;stroke-width:1;"/><polygon fill="#000000" points="455.6775,299.4652,460.0643,291.0267,454.2665,290.0599,455.6775,299.4652" style="stroke:#000000;stroke-width:1;"/><text fill="#000000" font-family="sans-serif" font-size="13" lengthAdjust="spacing" textLength="22.9785" x="465.5" y="299.0338">has</text><text fill="#000000" font-family="sans-serif" font-size="13" lengthAdjust="spacing" textLength="8.271" x="465.4714" y="229.0092">1</text><text fill="#000000" font-family="sans-serif" font-size="13" lengthAdjust="spacing" textLength="8.271" x="406.9145" y="548.2913">1</text></g><!--link HealthcareCenter to Employee--><g class="link" data-entity-1="ent0009" data-entity-2="ent0002" data-link-type="association" data-source-line="81" id="lnk20"><path codeLine="81" d="M409.18,195.6369 C374.35,221.9169 336.01,253.4769 304.5,285.9669 C271.76,319.7269 240.47,362.1569 216.91,396.9369" fill="none" id="HealthcareCenter-Employee" style="stroke:#181818;stroke-width:1;"/><polygon fill="#000000" points="306.0465,298.149,314.4192,293.638,310.1687,289.5782,306.0465,298.149" style="stroke:#000000;stroke-width:1;"/><text fill="#000000" font-family="sans-serif" font-size="13" lengthAdjust="spacing" textLength="54.9453" x="318.5" y="299.0338">employs</text><text fill="#000000" font-family="sans-serif" font-size="13" lengthAdjust="spacing" textLength="8.271" x="393.3559" y="197.4178">1</text><text fill="#000000" font-family="sans-serif" font-size="13" lengthAdjust="spacing" textLength="23.0356" x="196.9958" y="386.3939">0..*</text></g><!--link HealthcareCenter to VaccineType--><g class="link" data-entity-1="ent0009" data-entity-2="ent0017" data-link-type="association" data-source-line="82" id="lnk21"><path codeLine="82" d="M605.55,144.8169 C685.24,165.0869 784.5,207.5669 784.5,293.4669 C784.5,293.4669 784.5,293.4669 784.5,1016.2169 C784.5,1038.8969 781.08,1063.9569 777.39,1084.3269" fill="none" id="HealthcareCenter-VaccineType" style="stroke:#181818;stroke-width:1;"/><polygon fill="#000000" points="790.3996,710.0617,791.6632,700.6354,785.8812,701.693,790.3996,710.0617" style="stroke:#000000;stroke-width:1;"/><text fill="#000000" font-family="sans-serif" font-size="13" lengthAdjust="spacing" textLength="55.8784" x="798.5" y="709.6438">provides</text><text fill="#000000" font-family="sans-serif" font-size="13" lengthAdjust="spacing" textLength="8.271" x="613.373" y="142.7069">1</text><text fill="#000000" font-family="sans-serif" font-size="13" lengthAdjust="spacing" textLength="23.0356" x="753.9766" y="1073.5179">0..*</text></g><!--link HealthcareCenter to Vaccine--><g class="link" data-entity-1="ent0009" data-entity-2="ent0016" data-link-type="association" data-source-line="83" id="lnk22"><path codeLine="83" d="M598.19,209.1069 C616.62,233.8069 630.5,262.6369 630.5,293.4669 C630.5,293.4669 630.5,293.4669 630.5,1238.4069 C630.5,1260.7969 630.5,1285.5869 630.5,1306.5869" fill="none" id="HealthcareCenter-Vaccine" style="stroke:#181818;stroke-width:1;"/><polygon fill="#000000" points="635.6471,812.7911,638.3186,803.6635,632.4433,803.8364,635.6471,812.7911" style="stroke:#000000;stroke-width:1;"/><text fill="#000000" font-family="sans-serif" font-size="13" lengthAdjust="spacing" textLength="116.0859" x="644.5" y="812.2938">stores (inventory)</text><text fill="#000000" font-family="sans-serif" font-size="13" lengthAdjust="spacing" textLength="8.271" x="597.6509" y="228.9116">1</text><text fill="#000000" font-family="sans-serif" font-size="13" lengthAdjust="spacing" textLength="23.0356" x="605.9559" y="1295.9278">0..*</text></g><!--reverse link WaitingRoom to SNSUser--><g class="link" data-entity-1="ent0010" data-entity-2="ent0012" data-link-type="aggregation" data-source-line="86" id="lnk23"><path codeLine="86" d="M507.5,379.7169 C507.5,416.9169 507.5,497.7769 507.5,575.4869 C507.5,575.4869 507.5,575.4869 507.5,761.7269 C507.5,794.1869 487.93,823.1569 465.44,845.7369" fill="none" id="WaitingRoom-backto-SNSUser" style="stroke:#181818;stroke-width:1;"/><polygon fill="none" points="507.5,367.7169,503.5,373.7169,507.5,379.7169,511.5,373.7169,507.5,367.7169" style="stroke:#181818;stroke-width:1;"/><polygon fill="#000000" points="512.0506,645.833,515.7906,637.0887,509.9366,636.5604,512.0506,645.833" style="stroke:#000000;stroke-width:1;"/><text fill="#000000" font-family="sans-serif" font-size="13" lengthAdjust="spacing" textLength="55.0278" x="521.5" y="645.3538">contains</text><text fill="#000000" font-family="sans-serif" font-size="13" lengthAdjust="spacing" textLength="8.271" x="498.3639" y="387.1769">1</text><text fill="#000000" font-family="sans-serif" font-size="13" lengthAdjust="spacing" textLength="23.0356" x="449.7572" y="835.0549">0..*</text></g><!--reverse link RecoveryRoom to SNSUser--><g class="link" data-entity-1="ent0011" data-entity-2="ent0012" data-link-type="aggregation" data-source-line="87" id="lnk24"><path codeLine="87" d="M414.0645,606.0916 C411.7145,652.6016 405.63,773.3869 401.97,846.0269" fill="none" id="RecoveryRoom-backto-SNSUser" style="stroke:#181818;stroke-width:1;"/><polygon fill="none" points="414.67,594.1069,410.3723,599.8974,414.0645,606.0916,418.3621,600.3011,414.67,594.1069" style="stroke:#181818;stroke-width:1;"/><polygon fill="#000000" points="414.2483,710.1369,417.6388,701.2513,411.7684,700.9554,414.2483,710.1369" style="stroke:#000000;stroke-width:1;"/><text fill="#000000" font-family="sans-serif" font-size="13" lengthAdjust="spacing" textLength="55.0278" x="423.5" y="709.6438">contains</text><text fill="#000000" font-family="sans-serif" font-size="13" lengthAdjust="spacing" textLength="8.271" x="405.2911" y="613.5727">1</text><text fill="#000000" font-family="sans-serif" font-size="13" lengthAdjust="spacing" textLength="23.0356" x="377.702" y="835.0253">0..*</text></g><!--link Receptionist to SNSUser--><g class="link" data-entity-1="ent0007" data-entity-2="ent0012" data-link-type="association" data-source-line="90" id="lnk25"><path codeLine="90" d="M301.89,658.0269 C301.48,682.7869 302.75,731.1269 316.5,769.2269 C326.36,796.5369 343.28,823.8069 359.27,845.9369" fill="none" id="Receptionist-SNSUser" style="stroke:#181818;stroke-width:1;"/><polygon fill="#000000" points="322.9602,765.5753,323.1294,756.0662,317.5078,757.7828,322.9602,765.5753" style="stroke:#000000;stroke-width:1;"/><text fill="#000000" font-family="sans-serif" font-size="13" lengthAdjust="spacing" textLength="57.1924" x="330.5" y="765.2938">registers</text><text fill="#000000" font-family="sans-serif" font-size="13" lengthAdjust="spacing" textLength="8.271" x="292.4624" y="678.0013">1</text><text fill="#000000" font-family="sans-serif" font-size="13" lengthAdjust="spacing" textLength="23.0356" x="329.3206" y="835.2818">0..*</text></g><!--link Receptionist to Appointment--><g class="link" data-entity-1="ent0007" data-entity-2="ent0013" data-link-type="association" data-source-line="91" id="lnk26"><path codeLine="91" d="M274.37,658.3169 C244.49,678.2369 201.5,714.7069 201.5,759.7269 C201.5,759.7269 201.5,759.7269 201.5,1016.2169 C201.5,1045.1369 219.25,1072.4169 237,1092.4569" fill="none" id="Receptionist-Appointment" style="stroke:#181818;stroke-width:1;"/><polygon fill="#000000" points="206.0712,901.0249,209.775,892.2651,203.9188,891.7611,206.0712,901.0249" style="stroke:#000000;stroke-width:1;"/><text fill="#000000" font-family="sans-serif" font-size="13" lengthAdjust="spacing" textLength="56.3101" x="215.5" y="900.5438">confirms</text><text fill="#000000" font-family="sans-serif" font-size="13" lengthAdjust="spacing" textLength="8.271" x="256.5704" y="678.07">1</text><text fill="#000000" font-family="sans-serif" font-size="13" lengthAdjust="spacing" textLength="23.0356" x="205.3375" y="1081.9111">0..*</text></g><!--link SNSUser to Appointment--><g class="link" data-entity-1="ent0012" data-entity-2="ent0013" data-link-type="association" data-source-line="94" id="lnk27"><path codeLine="94" d="M372.26,945.9569 C347.62,990.2469 312.04,1054.2269 290.7,1092.5869" fill="none" id="SNSUser-Appointment" style="stroke:#181818;stroke-width:1;"/><polygon fill="#000000" points="340.0695,1019.6528,347.0346,1013.1768,341.8979,1010.3197,340.0695,1019.6528" style="stroke:#000000;stroke-width:1;"/><text fill="#000000" font-family="sans-serif" font-size="13" lengthAdjust="spacing" textLength="65.0317" x="351.5" y="1019.7838">schedules</text><text fill="#000000" font-family="sans-serif" font-size="13" lengthAdjust="spacing" textLength="8.271" x="360.0797" y="965.7576">1</text><text fill="#000000" font-family="sans-serif" font-size="13" lengthAdjust="spacing" textLength="23.0356" x="268.9805" y="1081.8079">0..*</text></g><!--link Appointment to VaccineType--><g class="link" data-entity-1="ent0013" data-entity-2="ent0017" data-link-type="association" data-source-line="95" id="lnk28"><path codeLine="95" d="M320.97,1126.3069 C416.03,1126.3069 625.94,1126.3069 720.58,1126.3069" fill="none" id="Appointment-VaccineType" style="stroke:#181818;stroke-width:1;"/><polygon fill="#000000" points="514.88,1114.8733,505.8349,1111.9344,505.8349,1117.8122,514.88,1114.8733" style="stroke:#000000;stroke-width:1;"/><text fill="#000000" font-family="sans-serif" font-size="13" lengthAdjust="spacing" textLength="17.875" x="518.88" y="1119.3738">for</text><text fill="#000000" font-family="sans-serif" font-size="13" lengthAdjust="spacing" textLength="23.0356" x="329.0308" y="1122.3742">0..*</text><text fill="#000000" font-family="sans-serif" font-size="13" lengthAdjust="spacing" textLength="8.271" x="704.6502" y="1122.2349">1</text></g><!--link Appointment to VaccinationProcess--><g class="link" data-entity-1="ent0013" data-entity-2="ent0015" data-link-type="association" data-source-line="98" id="lnk29"><path codeLine="98" d="M272.5,1160.0269 C272.5,1203.4269 272.5,1279.6169 272.5,1322.9869" fill="none" id="Appointment-VaccinationProcess" style="stroke:#181818;stroke-width:1;"/><polygon fill="#000000" points="277.5,1242.4733,280.4389,1233.4282,274.5611,1233.4282,277.5,1242.4733" style="stroke:#000000;stroke-width:1;"/><text fill="#000000" font-family="sans-serif" font-size="13" lengthAdjust="spacing" textLength="59.8203" x="286.5" y="1241.9738">results in</text><text fill="#000000" font-family="sans-serif" font-size="13" lengthAdjust="spacing" textLength="8.271" x="263.7874" y="1179.705">1</text><text fill="#000000" font-family="sans-serif" font-size="13" lengthAdjust="spacing" textLength="24.8066" x="246.2882" y="1312.2212">0..1</text></g><!--link Nurse to VaccinationProcess--><g class="link" data-entity-1="ent0005" data-entity-2="ent0015" data-link-type="association" data-source-line="99" id="lnk31"><path codeLine="99" d="M33.66,722.3969 C37.21,742.2469 42.5,776.8169 42.5,806.7269 C42.5,806.7269 42.5,806.7269 42.5,1238.4069 C42.5,1310.7869 134.04,1338.4969 201.62,1349.0969" fill="none" id="Nurse-VaccinationProcess" style="stroke:#181818;stroke-width:1;"/><polygon fill="#000000" points="46.2056,1010.4537,45.7084,1019.9513,51.3859,1018.4297,46.2056,1010.4537" style="stroke:#000000;stroke-width:1;"/><text fill="#000000" font-family="sans-serif" font-size="13" lengthAdjust="spacing" textLength="80.501" x="56.5" y="1019.7838">executed by</text><text fill="#000000" font-family="sans-serif" font-size="13" lengthAdjust="spacing" textLength="8.271" x="25.434" y="742.3936">1</text><text fill="#000000" font-family="sans-serif" font-size="13" lengthAdjust="spacing" textLength="23.0356" x="170.7693" y="1344.7361">0..*</text></g><!--link VaccinationProcess to Vaccine--><g class="link" data-entity-1="ent0015" data-entity-2="ent0016" data-link-type="association" data-source-line="100" id="lnk32"><path codeLine="100" d="M343.66,1356.6469 C406.47,1356.6469 497.51,1356.6469 560.09,1356.6469" fill="none" id="VaccinationProcess-Vaccine" style="stroke:#181818;stroke-width:1;"/><polygon fill="#000000" points="410.77,1345.2133,401.7249,1342.2744,401.7249,1348.1522,410.77,1345.2133" style="stroke:#000000;stroke-width:1;"/><text fill="#000000" font-family="sans-serif" font-size="13" lengthAdjust="spacing" textLength="87.439" x="414.77" y="1349.7138">uses (1 dose)</text><text fill="#000000" font-family="sans-serif" font-size="13" lengthAdjust="spacing" textLength="24.8066" x="351.1018" y="1353.0521">0..1</text><text fill="#000000" font-family="sans-serif" font-size="13" lengthAdjust="spacing" textLength="8.271" x="543.9653" y="1352.9005">1</text></g><!--link VaccinationProcess to AdverseReaction--><g class="link" data-entity-1="ent0015" data-entity-2="ent0014" data-link-type="association" data-source-line="101" id="lnk33"><path codeLine="101" d="M272.5,1390.1369 C272.5,1431.7669 272.5,1503.5169 272.5,1545.2069" fill="none" id="VaccinationProcess-AdverseReaction" style="stroke:#181818;stroke-width:1;"/><polygon fill="#000000" points="277.5,1480.9533,280.4389,1471.9082,274.5611,1471.9082,277.5,1480.9533" style="stroke:#000000;stroke-width:1;"/><text fill="#000000" font-family="sans-serif" font-size="13" lengthAdjust="spacing" textLength="57.1924" x="286.5" y="1480.4538">registers</text><text fill="#000000" font-family="sans-serif" font-size="13" lengthAdjust="spacing" textLength="8.271" x="263.7622" y="1410.031">1</text><text fill="#000000" font-family="sans-serif" font-size="13" lengthAdjust="spacing" textLength="24.8066" x="246.2894" y="1534.4469">0..1</text></g><!--link VaccineType to Vaccine--><g class="link" data-entity-1="ent0017" data-entity-2="ent0016" data-link-type="association" data-source-line="104" id="lnk35"><path codeLine="104" d="M743.67,1168.3969 C720.24,1207.1669 685.08,1265.3469 660.17,1306.5569" fill="none" id="VaccineType-Vaccine" style="stroke:#181818;stroke-width:1;"/><polygon fill="#000000" points="714.0862,1233.1941,706.8925,1239.4151,711.9229,1242.4554,714.0862,1233.1941" style="stroke:#000000;stroke-width:1;"/><text fill="#000000" font-family="sans-serif" font-size="13" lengthAdjust="spacing" textLength="45.7031" x="720.5" y="1241.9738">of type</text><text fill="#000000" font-family="sans-serif" font-size="13" lengthAdjust="spacing" textLength="8.271" x="731.2759" y="1188.0668">1</text><text fill="#000000" font-family="sans-serif" font-size="13" lengthAdjust="spacing" textLength="23.0356" x="639.6128" y="1295.8937">0..*</text></g><?plantuml-src bLLDRzim3BthLmYzR2sGehdcK21e2xJ0cXL9jvqLYOc5oQ8XqMczOVzzjEFF9CwwN4BBVFnuVAB9aWDvZwcoNZwZ0ISdyXdCi_9g2q74dzPdAgXKQgTYd1C5kyu9dZJwbVq5yaOare3KDcW7Upi5Ij14GPX9Ghb68aobiG4qMVH2LA7aGvevB03aRo7vDv7Mr8PNATIcCYP0ZFLJbg1ltW2Nx6fRM-9Q_9qAPf6dQwxxJvFb3Zn1c9lKUXifAC8WuPt0cq45hVyY3n7EUYn1GrOsml7EEZw2SfHe5M1VHDleV_Vt1kjegNc36NZhju_8fJO4E8m7HpkbjVKGNo2KntSgKqnJqPNtGp5hVhj47iwmFTn1A0xFLulLjzXh8lfOSpqsWwDcrpPGOXGtqaQTPnbQJoaJr4OkFLvjYugaA8yzYE7o8Yn1LN8QWnc8EjXgK1tsUqMAAWzV0cfcVWpka0wbj0TtUjMOfX2qLMxHwp4et-YOG2SU7MwBPgRlcGrLzli12tNaroBhHpTjApQ2YYEDVPAJoKGk7xxCNv--BbRban17qhkONiWhzYl_-uEVoKH5UNiUC934MSJ4u9ilKJVNrrSNtQsOiPnBSnmOx3QX3jbdP2QpW3lUB1zDsmngnjf1lbxoi_KxziPGN7888VeCb7Zii8tCPpm0JxmLowG30Zu246Am9KxKMCDcCi2MNLZH-pndGVtRKkNRs93kypLb_1CLTG8cTnMP_JUrSpU8wU4KDhmworG3r46w5ZIuOsMNCNSK9NzbRiK9ZoQxWqsJVB-9MJdleFcBO-Iw6CTEJrVEy3oM0fXAWn4kHm8SDt6uP8Pp4gA9tzITPoSfmusaqhhz2m00?></g></svg>