<svg xmlns="http://www.w3.org/2000/svg" xmlns:xlink="http://www.w3.org/1999/xlink" contentStyleType="text/css" data-diagram-type="DESCRIPTION" height="292px" preserveAspectRatio="none" style="width:468px;height:292px;background:#FFFFFF;" version="1.1" viewBox="0 0 468 292" width="468px" zoomAndPan="magnify"><?plantuml 1.2026.7beta1?><defs/><g><g class="title" data-source-line="1"><text fill="#000000" font-family="sans-serif" font-size="14" font-weight="700" lengthAdjust="spacing" textLength="257.8721" x="102.0294" y="22.9951">Use Case Diagram - Receptionist</text></g><!--entity Rec--><g class="entity" data-qualified-name="Rec" data-source-line="4" id="ent0001"><ellipse cx="49.5142" cy="128.3869" fill="#F1F1F1" rx="8" ry="8" style="stroke:#181818;stroke-width:0.5;"/><path d="M49.5142,136.3869 L49.5142,163.3869 M36.5142,144.3869 L62.5142,144.3869 M49.5142,163.3869 L36.5142,178.3869 M49.5142,163.3869 L62.5142,178.3869" fill="none" style="stroke:#181818;stroke-width:0.5;"/><text fill="#000000" font-family="sans-serif" font-size="14" lengthAdjust="spacing" textLength="87.0283" x="6" y="192.882">Receptionist</text></g><!--entity UC6--><g class="entity" data-qualified-name="UC6" data-source-line="6" id="ent0002"><ellipse cx="303.9764" cy="67.0382" fill="#F1F1F1" rx="106.7064" ry="23.7413" style="stroke:#181818;stroke-width:0.5;"/><text fill="#000000" font-family="sans-serif" font-size="14" lengthAdjust="spacing" textLength="190.7363" x="208.6082" y="71.6866">UC6 - Register an SNS user</text></g><!--entity UC7--><g class="entity" data-qualified-name="UC7" data-source-line="7" id="ent0003"><ellipse cx="303.9755" cy="158.038" fill="#F1F1F1" rx="150.9555" ry="32.5911" style="stroke:#181818;stroke-width:0.5;"/><text fill="#000000" font-family="sans-serif" font-size="14" lengthAdjust="spacing" textLength="284.4707" x="161.7401" y="162.6864">UC7 - Schedule a vaccine administration</text></g><!--entity UC8--><g class="entity" data-qualified-name="UC8" data-source-line="8" id="ent0004"><ellipse cx="303.9759" cy="252.0341" fill="#F1F1F1" rx="120.4859" ry="26.4972" style="stroke:#181818;stroke-width:0.5;"/><text fill="#000000" font-family="sans-serif" font-size="14" lengthAdjust="spacing" textLength="220.3906" x="193.7806" y="256.6825">UC8 - Register SNS User Arrival</text></g><!--link Rec to UC6--><g class="link" data-entity-1="ent0001" data-entity-2="ent0002" data-link-type="dependency" data-source-line="11" id="lnk5"><path d="M93.12,135.0469 C111.25,125.8469 132.83,115.6469 153.03,108.0369 C177.4,98.8569 199.8769,92.048 224.4369,85.538" fill="none" id="Rec-to-UC6" style="stroke:#181818;stroke-width:1;"/><polygon fill="#181818" points="229.27,84.2569,219.5456,82.6964,224.4369,85.538,221.5953,90.4293,229.27,84.2569" style="stroke:#181818;stroke-width:1;stroke-linejoin:miter;stroke-miterlimit:10;"/></g><!--link Rec to UC7--><g class="link" data-entity-1="ent0001" data-entity-2="ent0003" data-link-type="dependency" data-source-line="12" id="lnk6"><path d="M93.34,158.0369 C110.37,158.0369 126.05,158.0369 147.72,158.0369" fill="none" id="Rec-to-UC7" style="stroke:#181818;stroke-width:1;"/><polygon fill="#181818" points="152.72,158.0369,143.72,154.0369,147.72,158.0369,143.72,162.0369,152.72,158.0369" style="stroke:#181818;stroke-width:1;stroke-linejoin:miter;stroke-miterlimit:10;"/></g><!--link Rec to UC8--><g class="link" data-entity-1="ent0001" data-entity-2="ent0004" data-link-type="dependency" data-source-line="13" id="lnk7"><path d="M93.19,180.8569 C111.33,190.0169 132.9,200.2469 153.03,208.0369 C175.92,216.9069 196.5674,223.6159 219.9074,230.3759" fill="none" id="Rec-to-UC8" style="stroke:#181818;stroke-width:1;"/><polygon fill="#181818" points="224.71,231.7669,217.1781,225.421,219.9074,230.3759,214.9525,233.1052,224.71,231.7669" style="stroke:#181818;stroke-width:1;stroke-linejoin:miter;stroke-miterlimit:10;"/></g><?plantuml-src NO_D2eD038JlUOhWtMlrL2Zst4F51mYxgGRyATdeypShGiKzB0CpaoyniP6nIumD-VSKwfKcBF7DWRycoop9OEIFeIseqW-6KPH3jW0esA9OdCC5Kifj0FIt9WvvSD4rjtrgxn5Mf1dRLvjjtGjkN_ELvzimS5nzGyADGf3PLPmaSvGoy2XNrt9zXcMIdwZuK9MDngDK0u0lYcLvt_b_NPrq_GC0?></g></svg>