<svg xmlns="http://www.w3.org/2000/svg" xmlns:xlink="http://www.w3.org/1999/xlink" contentStyleType="text/css" data-diagram-type="DESCRIPTION" height="439px" preserveAspectRatio="none" style="width:508px;height:439px;background:#FFFFFF;" version="1.1" viewBox="0 0 508 439" width="508px" zoomAndPan="magnify"><?plantuml 1.2026.4beta2?><defs/><g><g class="title" data-source-line="1"><text fill="#000000" font-family="sans-serif" font-size="14" font-weight="700" lengthAdjust="spacing" textLength="326.1836" x="87.7029" y="22.9951">Use Case Diagram - Center Administrator</text></g><!--entity Admin--><g class="entity" data-qualified-name="Admin" data-source-line="4" id="ent0002"><ellipse cx="79.6265" cy="199.5269" fill="#F1F1F1" rx="8" ry="8" style="stroke:#181818;stroke-width:0.5;"/><path d="M79.6265,207.5269 L79.6265,234.5269 M66.6265,215.5269 L92.6265,215.5269 M79.6265,234.5269 L66.6265,249.5269 M79.6265,234.5269 L92.6265,249.5269" fill="none" style="stroke:#181818;stroke-width:0.5;"/><text fill="#000000" font-family="sans-serif" font-size="14" lengthAdjust="spacing" textLength="147.2529" x="6" y="264.022">Center Administrator</text></g><!--entity UC1--><g class="entity" data-qualified-name="UC1" data-source-line="7" id="ent0003"><ellipse cx="353.9151" cy="67.1759" fill="#F1F1F1" rx="107.3951" ry="23.879" style="stroke:#181818;stroke-width:0.5;"/><text fill="#000000" font-family="sans-serif" font-size="14" lengthAdjust="spacing" textLength="192.2334" x="257.7984" y="71.8243">UC1 - Specify Vaccine Type</text></g><!--entity UC2--><g class="entity" data-qualified-name="UC2" data-source-line="8" id="ent0004"><ellipse cx="353.9227" cy="148.1734" fill="#F1F1F1" rx="98.2827" ry="22.0565" style="stroke:#181818;stroke-width:0.5;"/><text fill="#000000" font-family="sans-serif" font-size="14" lengthAdjust="spacing" textLength="172.2656" x="267.7899" y="152.8218">UC2 - Register a vaccine</text></g><!--entity UC3--><g class="entity" data-qualified-name="UC3" data-source-line="9" id="ent0005"><ellipse cx="353.9226" cy="229.1794" fill="#F1F1F1" rx="109.4126" ry="24.2825" style="stroke:#181818;stroke-width:0.5;"/><text fill="#000000" font-family="sans-serif" font-size="14" lengthAdjust="spacing" textLength="196.6084" x="255.6184" y="233.8278">UC3 - Register an employee</text></g><!--entity UC4--><g class="entity" data-qualified-name="UC4" data-source-line="10" id="ent0006"><ellipse cx="353.9197" cy="319.1808" fill="#F1F1F1" rx="140.6697" ry="30.5339" style="stroke:#181818;stroke-width:0.5;"/><text fill="#000000" font-family="sans-serif" font-size="14" lengthAdjust="spacing" textLength="263.0059" x="222.4168" y="323.8293">UC4 - List employees by function/role</text></g><!--entity UC5--><g class="entity" data-qualified-name="UC5" data-source-line="11" id="ent0007"><ellipse cx="353.9221" cy="405.1793" fill="#F1F1F1" rx="89.9121" ry="20.3824" style="stroke:#181818;stroke-width:0.5;"/><text fill="#000000" font-family="sans-serif" font-size="14" lengthAdjust="spacing" textLength="153.542" x="277.1511" y="409.8277">UC5 - List all vaccines</text></g><!--link Admin to UC1--><g class="link" data-entity-1="ent0002" data-entity-2="ent0003" data-link-type="dependency" data-source-line="14" id="lnk8"><path d="M113.95,190.6269 C138.87,163.9969 175.09,129.6469 213.25,108.1769 C231.97,97.6369 247.9035,91.2687 268.5235,85.2087" fill="none" id="Admin-to-UC1" style="stroke:#181818;stroke-width:1;"/><polygon fill="#181818" points="274.28,83.5169,264.5173,82.2169,269.4829,84.9267,266.773,89.8923,274.28,83.5169" style="stroke:#181818;stroke-width:1;"/></g><!--link Admin to UC2--><g class="link" data-entity-1="ent0002" data-entity-2="ent0004" data-link-type="dependency" data-source-line="15" id="lnk9"><path d="M153.45,205.6169 C172.85,199.4769 193.81,192.9669 213.25,187.1769 C238.23,179.7369 260.0573,173.5372 284.0873,166.8872" fill="none" id="Admin-to-UC2" style="stroke:#181818;stroke-width:1;"/><polygon fill="#181818" points="289.87,165.2869,280.1292,163.8322,285.0511,166.6204,282.2629,171.5424,289.87,165.2869" style="stroke:#181818;stroke-width:1;"/></g><!--link Admin to UC3--><g class="link" data-entity-1="ent0002" data-entity-2="ent0005" data-link-type="dependency" data-source-line="16" id="lnk10"><path d="M153.6,229.1769 C181.4,229.1769 207.72,229.1769 238.14,229.1769" fill="none" id="Admin-to-UC3" style="stroke:#181818;stroke-width:1;"/><polygon fill="#181818" points="244.14,229.1769,235.14,225.1769,239.14,229.1769,235.14,233.1769,244.14,229.1769" style="stroke:#181818;stroke-width:1;"/></g><!--link Admin to UC4--><g class="link" data-entity-1="ent0002" data-entity-2="ent0006" data-link-type="dependency" data-source-line="17" id="lnk11"><path d="M153.6,253.2969 C191.25,265.7369 231.483,279.0342 269.763,291.6842" fill="none" id="Admin-to-UC4" style="stroke:#181818;stroke-width:1;"/><polygon fill="#181818" points="275.46,293.5669,268.1696,286.9449,270.7125,291.998,265.6594,294.5409,275.46,293.5669" style="stroke:#181818;stroke-width:1;"/></g><!--link Admin to UC5--><g class="link" data-entity-1="ent0002" data-entity-2="ent0007" data-link-type="dependency" data-source-line="18" id="lnk12"><path d="M108.21,267.7969 C132.47,299.0269 170.53,341.8269 213.25,367.1769 C233.46,379.1669 251.725,385.9885 274.145,391.6885" fill="none" id="Admin-to-UC5" style="stroke:#181818;stroke-width:1;"/><polygon fill="#181818" points="279.96,393.1669,272.2231,387.0726,275.1142,391.9349,270.2519,394.826,279.96,393.1669" style="stroke:#181818;stroke-width:1;"/></g><?plantuml-src RO_DQiCm48JlUeh1TnFgdskWkCUUsgPtHLcx2x9af4t1Rz-D4vVQL0V1QB_PqGYB9vmoeRDwlR0TaXrHegCWbF1y6JbmbcGb9kEf5qX4uk5BSE54JZW6OwpJCOh_J0LilhyOOw3dcidTiefJzwH1xnCvxcTyMkSu43xcYHQFZlTyfVmR3RfQKoo-xvO7NUtfUaC7q3ZvEDFArtk-KVvLwLymupoZluQbv255lrgRlRLThTRxzLlv0RVQU-cFiZmkhVwgQgFgZMesglq1?></g></svg>